<svg version="1.1" viewBox="0.0 0.0 600.0 371.0" fill="none" stroke="none" stroke-linecap="square" stroke-miterlimit="10" width="600" height="371" xmlns:xlink="http://www.w3.org/1999/xlink" xmlns="http://www.w3.org/2000/svg"><path fill="#ffffff" d="M0 0L600.0 0L600.0 371.0L0 371.0L0 0Z" fill-rule="nonzero"/><path stroke="#cccccc" stroke-width="1.0" stroke-linecap="butt" d="M110.5 61.5L110.5 300.5" fill-rule="nonzero"/><path stroke="#cccccc" stroke-width="1.0" stroke-linecap="butt" d="M189.5 61.5L189.5 300.5" fill-rule="nonzero"/><path stroke="#cccccc" stroke-width="1.0" stroke-linecap="butt" d="M268.5 61.5L268.5 300.5" fill-rule="nonzero"/><path stroke="#cccccc" stroke-width="1.0" stroke-linecap="butt" d="M347.5 61.5L347.5 300.5" fill-rule="nonzero"/><path stroke="#cccccc" stroke-width="1.0" stroke-linecap="butt" d="M427.5 61.5L427.5 300.5" fill-rule="nonzero"/><path stroke="#cccccc" stroke-width="1.0" stroke-linecap="butt" d="M505.5 61.5L505.5 300.5" fill-rule="nonzero"/><path stroke="#333333" stroke-width="1.0" stroke-linecap="butt" d="M110.5 300.5L581.5 300.5" fill-rule="nonzero"/><path stroke="#cccccc" stroke-width="1.0" stroke-linecap="butt" d="M110.5 240.5L581.5 240.5" fill-rule="nonzero"/><path stroke="#cccccc" stroke-width="1.0" stroke-linecap="butt" d="M110.5 181.5L581.5 181.5" fill-rule="nonzero"/><path stroke="#cccccc" stroke-width="1.0" stroke-linecap="butt" d="M110.5 121.5L581.5 121.5" fill-rule="nonzero"/><path stroke="#cccccc" stroke-width="1.0" stroke-linecap="butt" d="M110.5 61.5L581.5 61.5" fill-rule="nonzero"/><path stroke="#e6e6e6" stroke-width="1.0" stroke-linecap="butt" d="M110.5 280.5L581.5 280.5" fill-rule="nonzero"/><path stroke="#e6e6e6" stroke-width="1.0" stroke-linecap="butt" d="M110.5 260.5L581.5 260.5" fill-rule="nonzero"/><path stroke="#e6e6e6" stroke-width="1.0" stroke-linecap="butt" d="M110.5 220.5L581.5 220.5" fill-rule="nonzero"/><path stroke="#e6e6e6" stroke-width="1.0" stroke-linecap="butt" d="M110.5 201.5L581.5 201.5" fill-rule="nonzero"/><path stroke="#e6e6e6" stroke-width="1.0" stroke-linecap="butt" d="M110.5 161.5L581.5 161.5" fill-rule="nonzero"/><path stroke="#e6e6e6" stroke-width="1.0" stroke-linecap="butt" d="M110.5 141.5L581.5 141.5" fill-rule="nonzero"/><path stroke="#e6e6e6" stroke-width="1.0" stroke-linecap="butt" d="M110.5 101.5L581.5 101.5" fill-rule="nonzero"/><path stroke="#e6e6e6" stroke-width="1.0" stroke-linecap="butt" d="M110.5 81.5L581.5 81.5" fill-rule="nonzero"/><path stroke="#000000" stroke-width="1.0" stroke-linecap="butt" d="M110.5 300.5L110.5 61.5" fill-rule="nonzero"/><clipPath id="id_0"><path d="M110.55 61.916668L581.45 61.916668L581.45 300.45L110.55 300.45L110.55 61.916668Z" clip-rule="nonzero"/></clipPath><path stroke="#4285f4" stroke-width="2.0" stroke-linecap="butt" clip-path="url(#id_0)" d="M110.55 128.55692C110.55 128.55692 119.51952 107.13861 124.00429 109.772415C128.48904 112.40622 132.97382 137.30315 137.45857 144.35976C141.94333 151.41637 146.4281 147.23457 150.91286 152.11208C155.39761 156.9896 159.88239 167.68633 164.36714 173.6248C168.8519 179.5633 173.33667 184.96756 177.82143 187.743C182.30618 190.51843 186.79095 188.94809 191.27571 190.27742C195.76048 191.60675 200.24524 196.61346 204.73 195.71896C209.21477 194.82446 213.69952 188.3443 218.18428 184.91042C222.66905 181.47653 227.15381 180.18448 231.63857 175.11565C236.12334 170.04681 240.6081 163.35048 245.09285 154.49742C249.57762 145.64435 254.06238 130.34592 258.54715 121.99725C263.0319 113.64858 267.51666 105.10362 272.00143 104.40542C276.48618 103.70721 280.97095 110.60231 285.45572 117.80801C289.9405 125.0137 294.42523 140.81902 298.91 147.63959C303.39478 154.46014 307.87952 154.03029 312.3643 158.73138C316.84906 163.43248 321.3338 170.68289 325.81857 175.84615C330.30334 181.0094 334.7881 187.12679 339.27286 189.7109C343.75763 192.29501 348.24237 189.56181 352.72714 191.35081C357.2119 193.13982 361.69666 204.42046 366.18143 200.4449C370.6662 196.46935 375.15094 177.64012 379.6357 167.49748C384.12048 157.35484 388.60522 146.65067 393.09 139.58908C397.57477 132.5275 402.0595 129.39676 406.54428 125.128C411.02905 120.859245 415.51382 117.40996 419.99857 113.97657C424.48334 110.543175 428.9681 108.458496 433.45285 104.527664C437.93762 100.59683 442.4224 88.42418 446.90714 90.39159C451.3919 92.358986 455.87668 106.045334 460.36142 116.332085C464.8462 126.618835 469.33096 144.09239 473.8157 152.11208C478.30048 160.13177 482.78525 158.96396 487.27 164.45023C491.75476 169.9365 496.23953 180.24312 500.72427 185.02968C505.20905 189.81625 509.69382 191.2062 514.1786 193.16963C518.6633 195.13306 523.1481 197.60039 527.6329 196.81024C532.1176 196.02011 536.60236 191.50537 541.08716 188.42879C545.5719 185.3522 550.05664 185.51172 554.54144 178.35075C559.0262 171.18977 563.5109 157.78719 567.9957 145.46297C572.48047 133.13875 581.45 104.40542 581.45 104.40542" fill-rule="nonzero"/><path fill="#000000" fill-opacity="0.0" clip-path="url(#id_0)" d="M113.55 128.55692C113.55 130.21378 112.206856 131.55692 110.55 131.55692C108.89314 131.55692 107.55 130.21378 107.55 128.55692C107.55 126.90006 108.89314 125.556915 110.55 125.556915C112.206856 125.556915 113.55 126.90006 113.55 128.55692Z" fill-rule="nonzero"/><path fill="#000000" fill-opacity="0.0" clip-path="url(#id_0)" d="M127.00429 109.772415C127.00429 111.42927 125.66114 112.772415 124.00429 112.772415C122.347435 112.772415 121.00429 111.42927 121.00429 109.772415C121.00429 108.11556 122.347435 106.772415 124.00429 106.772415C125.66114 106.772415 127.00429 108.11556 127.00429 109.772415Z" fill-rule="nonzero"/><path fill="#000000" fill-opacity="0.0" clip-path="url(#id_0)" d="M140.45857 144.35976C140.45857 146.0166 139.11543 147.35976 137.45857 147.35976C135.80171 147.35976 134.45857 146.0166 134.45857 144.35976C134.45857 142.7029 135.80171 141.35976 137.45857 141.35976C139.11543 141.35976 140.45857 142.7029 140.45857 144.35976Z" fill-rule="nonzero"/><path fill="#000000" fill-opacity="0.0" clip-path="url(#id_0)" d="M153.91286 152.11208C153.91286 153.76894 152.56972 155.11208 150.91286 155.11208C149.256 155.11208 147.91286 153.76894 147.91286 152.11208C147.91286 150.45523 149.256 149.11208 150.91286 149.11208C152.56972 149.11208 153.91286 150.45523 153.91286 152.11208Z" fill-rule="nonzero"/><path fill="#000000" fill-opacity="0.0" clip-path="url(#id_0)" d="M167.36714 173.6248C167.36714 175.28166 166.024 176.6248 164.36714 176.6248C162.71028 176.6248 161.36714 175.28166 161.36714 173.6248C161.36714 171.96796 162.71028 170.6248 164.36714 170.6248C166.024 170.6248 167.36714 171.96796 167.36714 173.6248Z" fill-rule="nonzero"/><path fill="#000000" fill-opacity="0.0" clip-path="url(#id_0)" d="M180.82143 187.743C180.82143 189.39986 179.47829 190.743 177.82143 190.743C176.16458 190.743 174.82143 189.39986 174.82143 187.743C174.82143 186.08615 176.16458 184.743 177.82143 184.743C179.47829 184.743 180.82143 186.08615 180.82143 187.743Z" fill-rule="nonzero"/><path fill="#000000" fill-opacity="0.0" clip-path="url(#id_0)" d="M194.27571 190.27742C194.27571 191.93427 192.93257 193.27742 191.27571 193.27742C189.61887 193.27742 188.27571 191.93427 188.27571 190.27742C188.27571 188.62056 189.61887 187.27742 191.27571 187.27742C192.93257 187.27742 194.27571 188.62056 194.27571 190.27742Z" fill-rule="nonzero"/><path fill="#000000" fill-opacity="0.0" clip-path="url(#id_0)" d="M207.73 195.71896C207.73 197.37581 206.38686 198.71896 204.73 198.71896C203.07315 198.71896 201.73 197.37581 201.73 195.71896C201.73 194.0621 203.07315 192.71896 204.73 192.71896C206.38686 192.71896 207.73 194.0621 207.73 195.71896Z" fill-rule="nonzero"/><path fill="#000000" fill-opacity="0.0" clip-path="url(#id_0)" d="M221.18428 184.91042C221.18428 186.56728 219.84114 187.91042 218.18428 187.91042C216.52744 187.91042 215.18428 186.56728 215.18428 184.91042C215.18428 183.25356 216.52744 181.91042 218.18428 181.91042C219.84114 181.91042 221.18428 183.25356 221.18428 184.91042Z" fill-rule="nonzero"/><path fill="#000000" fill-opacity="0.0" clip-path="url(#id_0)" d="M234.63857 175.11565C234.63857 176.77249 233.29543 178.11565 231.63857 178.11565C229.98172 178.11565 228.63857 176.77249 228.63857 175.11565C228.63857 173.45879 229.98172 172.11565 231.63857 172.11565C233.29543 172.11565 234.63857 173.45879 234.63857 175.11565Z" fill-rule="nonzero"/><path fill="#000000" fill-opacity="0.0" clip-path="url(#id_0)" d="M248.09285 154.49742C248.09285 156.15427 246.74971 157.49742 245.09285 157.49742C243.436 157.49742 242.09285 156.15427 242.09285 154.49742C242.09285 152.84056 243.436 151.49742 245.09285 151.49742C246.74971 151.49742 248.09285 152.84056 248.09285 154.49742Z" fill-rule="nonzero"/><path fill="#000000" fill-opacity="0.0" clip-path="url(#id_0)" d="M261.54715 121.99725C261.54715 123.654106 260.204 124.99725 258.54715 124.99725C256.8903 124.99725 255.54715 123.654106 255.54715 121.99725C255.54715 120.34039 256.8903 118.99725 258.54715 118.99725C260.204 118.99725 261.54715 120.34039 261.54715 121.99725Z" fill-rule="nonzero"/><path fill="#000000" fill-opacity="0.0" clip-path="url(#id_0)" d="M275.00143 104.40542C275.00143 106.06227 273.6583 107.40542 272.00143 107.40542C270.34457 107.40542 269.00143 106.06227 269.00143 104.40542C269.00143 102.748566 270.34457 101.40542 272.00143 101.40542C273.6583 101.40542 275.00143 102.748566 275.00143 104.40542Z" fill-rule="nonzero"/><path fill="#000000" fill-opacity="0.0" clip-path="url(#id_0)" d="M288.45572 117.80801C288.45572 119.46486 287.11258 120.80801 285.45572 120.80801C283.79886 120.80801 282.45572 119.46486 282.45572 117.80801C282.45572 116.15115 283.79886 114.80801 285.45572 114.80801C287.11258 114.80801 288.45572 116.15115 288.45572 117.80801Z" fill-rule="nonzero"/><path fill="#000000" fill-opacity="0.0" clip-path="url(#id_0)" d="M301.91 147.63959C301.91 149.29643 300.56686 150.63959 298.91 150.63959C297.25314 150.63959 295.91 149.29643 295.91 147.63959C295.91 145.98273 297.25314 144.63959 298.91 144.63959C300.56686 144.63959 301.91 145.98273 301.91 147.63959Z" fill-rule="nonzero"/><path fill="#000000" fill-opacity="0.0" clip-path="url(#id_0)" d="M315.3643 158.73138C315.3643 160.38824 314.02115 161.73138 312.3643 161.73138C310.70743 161.73138 309.3643 160.38824 309.3643 158.73138C309.3643 157.07452 310.70743 155.73138 312.3643 155.73138C314.02115 155.73138 315.3643 157.07452 315.3643 158.73138Z" fill-rule="nonzero"/><path fill="#000000" fill-opacity="0.0" clip-path="url(#id_0)" d="M328.81857 175.84615C328.81857 177.503 327.47543 178.84615 325.81857 178.84615C324.1617 178.84615 322.81857 177.503 322.81857 175.84615C322.81857 174.1893 324.1617 172.84615 325.81857 172.84615C327.47543 172.84615 328.81857 174.1893 328.81857 175.84615Z" fill-rule="nonzero"/><path fill="#000000" fill-opacity="0.0" clip-path="url(#id_0)" d="M342.27286 189.7109C342.27286 191.36775 340.92972 192.7109 339.27286 192.7109C337.616 192.7109 336.27286 191.36775 336.27286 189.7109C336.27286 188.05405 337.616 186.7109 339.27286 186.7109C340.92972 186.7109 342.27286 188.05405 342.27286 189.7109Z" fill-rule="nonzero"/><path fill="#000000" fill-opacity="0.0" clip-path="url(#id_0)" d="M355.72714 191.35081C355.72714 193.00768 354.384 194.35081 352.72714 194.35081C351.07028 194.35081 349.72714 193.00768 349.72714 191.35081C349.72714 189.69397 351.07028 188.35081 352.72714 188.35081C354.384 188.35081 355.72714 189.69397 355.72714 191.35081Z" fill-rule="nonzero"/><path fill="#000000" fill-opacity="0.0" clip-path="url(#id_0)" d="M369.18143 200.4449C369.18143 202.10176 367.8383 203.4449 366.18143 203.4449C364.52457 203.4449 363.18143 202.10176 363.18143 200.4449C363.18143 198.78804 364.52457 197.4449 366.18143 197.4449C367.8383 197.4449 369.18143 198.78804 369.18143 200.4449Z" fill-rule="nonzero"/><path fill="#000000" fill-opacity="0.0" clip-path="url(#id_0)" d="M382.6357 167.49748C382.6357 169.15434 381.29257 170.49748 379.6357 170.49748C377.97885 170.49748 376.6357 169.15434 376.6357 167.49748C376.6357 165.84062 377.97885 164.49748 379.6357 164.49748C381.29257 164.49748 382.6357 165.84062 382.6357 167.49748Z" fill-rule="nonzero"/><path fill="#000000" fill-opacity="0.0" clip-path="url(#id_0)" d="M396.09 139.58908C396.09 141.24594 394.74686 142.58908 393.09 142.58908C391.43314 142.58908 390.09 141.24594 390.09 139.58908C390.09 137.93224 391.43314 136.58908 393.09 136.58908C394.74686 136.58908 396.09 137.93224 396.09 139.58908Z" fill-rule="nonzero"/><path fill="#000000" fill-opacity="0.0" clip-path="url(#id_0)" d="M409.54428 125.128C409.54428 126.78485 408.20114 128.128 406.54428 128.128C404.88742 128.128 403.54428 126.78485 403.54428 125.128C403.54428 123.471146 404.88742 122.128 406.54428 122.128C408.20114 122.128 409.54428 123.471146 409.54428 125.128Z" fill-rule="nonzero"/><path fill="#000000" fill-opacity="0.0" clip-path="url(#id_0)" d="M422.99857 113.97657C422.99857 115.63342 421.65543 116.97657 419.99857 116.97657C418.3417 116.97657 416.99857 115.63342 416.99857 113.97657C416.99857 112.31971 418.3417 110.97657 419.99857 110.97657C421.65543 110.97657 422.99857 112.31971 422.99857 113.97657Z" fill-rule="nonzero"/><path fill="#000000" fill-opacity="0.0" clip-path="url(#id_0)" d="M436.45285 104.527664C436.45285 106.18452 435.1097 107.527664 433.45285 107.527664C431.796 107.527664 430.45285 106.18452 430.45285 104.527664C430.45285 102.87081 431.796 101.527664 433.45285 101.527664C435.1097 101.527664 436.45285 102.87081 436.45285 104.527664Z" fill-rule="nonzero"/><path fill="#000000" fill-opacity="0.0" clip-path="url(#id_0)" d="M449.90714 90.39159C449.90714 92.04844 448.564 93.39159 446.90714 93.39159C445.25027 93.39159 443.90714 92.04844 443.90714 90.39159C443.90714 88.734726 445.25027 87.39159 446.90714 87.39159C448.564 87.39159 449.90714 88.734726 449.90714 90.39159Z" fill-rule="nonzero"/><path fill="#000000" fill-opacity="0.0" clip-path="url(#id_0)" d="M463.36142 116.332085C463.36142 117.98894 462.01828 119.332085 460.36142 119.332085C458.70456 119.332085 457.36142 117.98894 457.36142 116.332085C457.36142 114.67523 458.70456 113.332085 460.36142 113.332085C462.01828 113.332085 463.36142 114.67523 463.36142 116.332085Z" fill-rule="nonzero"/><path fill="#000000" fill-opacity="0.0" clip-path="url(#id_0)" d="M476.8157 152.11208C476.8157 153.76894 475.47256 155.11208 473.8157 155.11208C472.15887 155.11208 470.8157 153.76894 470.8157 152.11208C470.8157 150.45523 472.15887 149.11208 473.8157 149.11208C475.47256 149.11208 476.8157 150.45523 476.8157 152.11208Z" fill-rule="nonzero"/><path fill="#000000" fill-opacity="0.0" clip-path="url(#id_0)" d="M490.27 164.45023C490.27 166.10707 488.92685 167.45023 487.27 167.45023C485.61316 167.45023 484.27 166.10707 484.27 164.45023C484.27 162.79337 485.61316 161.45023 487.27 161.45023C488.92685 161.45023 490.27 162.79337 490.27 164.45023Z" fill-rule="nonzero"/><path fill="#000000" fill-opacity="0.0" clip-path="url(#id_0)" d="M503.72427 185.02968C503.72427 186.68654 502.38113 188.02968 500.72427 188.02968C499.06744 188.02968 497.72427 186.68654 497.72427 185.02968C497.72427 183.37283 499.06744 182.02968 500.72427 182.02968C502.38113 182.02968 503.72427 183.37283 503.72427 185.02968Z" fill-rule="nonzero"/><path fill="#000000" fill-opacity="0.0" clip-path="url(#id_0)" d="M517.1786 193.16963C517.1786 194.82649 515.83545 196.16963 514.1786 196.16963C512.5217 196.16963 511.17856 194.82649 511.17856 193.16963C511.17856 191.51277 512.5217 190.16963 514.1786 190.16963C515.83545 190.16963 517.1786 191.51277 517.1786 193.16963Z" fill-rule="nonzero"/><path fill="#000000" fill-opacity="0.0" clip-path="url(#id_0)" d="M530.6329 196.81024C530.6329 198.4671 529.28973 199.81024 527.6329 199.81024C525.976 199.81024 524.6329 198.4671 524.6329 196.81024C524.6329 195.1534 525.976 193.81024 527.6329 193.81024C529.28973 193.81024 530.6329 195.1534 530.6329 196.81024Z" fill-rule="nonzero"/><path fill="#000000" fill-opacity="0.0" clip-path="url(#id_0)" d="M544.08716 188.42879C544.08716 190.08563 542.744 191.42879 541.08716 191.42879C539.4303 191.42879 538.08716 190.08563 538.08716 188.42879C538.08716 186.77193 539.4303 185.42879 541.08716 185.42879C542.744 185.42879 544.08716 186.77193 544.08716 188.42879Z" fill-rule="nonzero"/><path fill="#000000" fill-opacity="0.0" clip-path="url(#id_0)" d="M557.54144 178.35075C557.54144 180.0076 556.1983 181.35075 554.54144 181.35075C552.8846 181.35075 551.54144 180.0076 551.54144 178.35075C551.54144 176.6939 552.8846 175.35075 554.54144 175.35075C556.1983 175.35075 557.54144 176.6939 557.54144 178.35075Z" fill-rule="nonzero"/><path fill="#000000" fill-opacity="0.0" clip-path="url(#id_0)" d="M570.9957 145.46297C570.9957 147.11983 569.6526 148.46297 567.9957 148.46297C566.33887 148.46297 564.9957 147.11983 564.9957 145.46297C564.9957 143.8061 566.33887 142.46297 567.9957 142.46297C569.6526 142.46297 570.9957 143.8061 570.9957 145.46297Z" fill-rule="nonzero"/><path fill="#000000" fill-opacity="0.0" clip-path="url(#id_0)" d="M584.45 104.40542C584.45 106.06227 583.1069 107.40542 581.45 107.40542C579.79315 107.40542 578.45 106.06227 578.45 104.40542C578.45 102.748566 579.79315 101.40542 581.45 101.40542C583.1069 101.40542 584.45 102.748566 584.45 104.40542Z" fill-rule="nonzero"/><path stroke="#000000" stroke-width="1.0" stroke-linecap="butt" d="M107.5 280.5L113.5 280.5" fill-rule="nonzero"/><path stroke="#000000" stroke-width="1.0" stroke-linecap="butt" d="M107.5 260.5L113.5 260.5" fill-rule="nonzero"/><path stroke="#000000" stroke-width="1.0" stroke-linecap="butt" d="M107.5 220.5L113.5 220.5" fill-rule="nonzero"/><path stroke="#000000" stroke-width="1.0" stroke-linecap="butt" d="M107.5 201.5L113.5 201.5" fill-rule="nonzero"/><path stroke="#000000" stroke-width="1.0" stroke-linecap="butt" d="M107.5 161.5L113.5 161.5" fill-rule="nonzero"/><path stroke="#000000" stroke-width="1.0" stroke-linecap="butt" d="M107.5 141.5L113.5 141.5" fill-rule="nonzero"/><path stroke="#000000" stroke-width="1.0" stroke-linecap="butt" d="M107.5 101.5L113.5 101.5" fill-rule="nonzero"/><path stroke="#000000" stroke-width="1.0" stroke-linecap="butt" d="M107.5 81.5L113.5 81.5" fill-rule="nonzero"/><path stroke="#000000" stroke-width="1.0" stroke-linecap="butt" d="M104.5 300.5L116.5 300.5" fill-rule="nonzero"/><path stroke="#000000" stroke-width="1.0" stroke-linecap="butt" d="M104.5 240.5L116.5 240.5" fill-rule="nonzero"/><path stroke="#000000" stroke-width="1.0" stroke-linecap="butt" d="M104.5 181.5L116.5 181.5" fill-rule="nonzero"/><path stroke="#000000" stroke-width="1.0" stroke-linecap="butt" d="M104.5 121.5L116.5 121.5" fill-rule="nonzero"/><path stroke="#000000" stroke-width="1.0" stroke-linecap="butt" d="M104.5 61.5L116.5 61.5" fill-rule="nonzero"/><path fill="#000000" d="M307.34375 349.45L307.34375 340.85626L309.95312 340.85626L311.5 346.71564L313.04688 340.85626L315.64062 340.85626L315.64062 349.45L314.03125 349.45L314.03125 342.6844L312.32812 349.45L310.65625 349.45L308.96875 342.6844L308.96875 349.45L307.34375 349.45ZM316.98438 346.2469Q316.98438 345.4344 317.39062 344.66876Q317.79688 343.8875 318.53125 343.4969Q319.26562 343.09064 320.1875 343.09064Q321.59375 343.09064 322.5 344.0125Q323.40625 344.91876 323.40625 346.325Q323.40625 347.73126 322.48438 348.66876Q321.57812 349.59064 320.20312 349.59064Q319.34375 349.59064 318.5625 349.2Q317.79688 348.8094 317.39062 348.075Q316.98438 347.325 316.98438 346.2469ZM318.67188 346.34064Q318.67188 347.2625 319.10938 347.7625Q319.54688 348.2469 320.1875 348.2469Q320.84375 348.2469 321.26562 347.7625Q321.70312 347.2625 321.70312 346.325Q321.70312 345.41876 321.26562 344.9344Q320.84375 344.4344 320.1875 344.4344Q319.54688 344.4344 319.10938 344.9344Q318.67188 345.41876 318.67188 346.34064ZM330.01562 349.45L328.375 349.45L328.375 346.27814Q328.375 345.2625 328.26562 344.96564Q328.17188 344.66876 327.92188 344.5125Q327.6875 344.34064 327.35938 344.34064Q326.92188 344.34064 326.57812 344.575Q326.25 344.8094 326.125 345.2Q326.0 345.59064 326.0 346.6375L326.0 349.45L324.34375 349.45L324.34375 343.23126L325.875 343.23126L325.875 344.1375Q326.6875 343.09064 327.9375 343.09064Q328.46875 343.09064 328.92188 343.29376Q329.375 343.48126 329.60938 343.79376Q329.84375 344.09064 329.92188 344.48126Q330.01562 344.85626 330.01562 345.575L330.01562 349.45ZM334.21875 343.23126L334.21875 344.54376L333.09375 344.54376L333.09375 347.04376Q333.09375 347.8094 333.125 347.9344Q333.15625 348.0594 333.26562 348.15314Q333.39062 348.23126 333.54688 348.23126Q333.78125 348.23126 334.20312 348.0594L334.34375 349.34064Q333.78125 349.59064 333.04688 349.59064Q332.60938 349.59064 332.25 349.45Q331.89062 349.29376 331.71875 349.0594Q331.5625 348.8094 331.48438 348.41876Q331.4375 348.1219 331.4375 347.2469L331.4375 344.54376L330.6875 344.54376L330.6875 343.23126L331.4375 343.23126L331.4375 341.9969L333.09375 341.02814L333.09375 343.23126L334.21875 343.23126ZM337.0 340.85626L337.0 344.0125Q337.79688 343.09064 338.90625 343.09064Q339.46875 343.09064 339.92188 343.3094Q340.39062 343.5125 340.625 343.84064Q340.85938 344.16876 340.9375 344.575Q341.01562 344.96564 341.01562 345.79376L341.01562 349.45L339.375 349.45L339.375 346.16876Q339.375 345.1844 339.28125 344.91876Q339.1875 344.65314 338.95312 344.4969Q338.71875 344.34064 338.35938 344.34064Q337.95312 344.34064 337.625 344.54376Q337.29688 344.7469 337.14062 345.15314Q337.0 345.54376 337.0 346.325L337.0 349.45L335.35938 349.45L335.35938 340.85626L337.0 340.85626ZM344.98438 346.2469Q344.98438 345.4344 345.39062 344.66876Q345.79688 343.8875 346.53125 343.4969Q347.26562 343.09064 348.1875 343.09064Q349.59375 343.09064 350.5 344.0125Q351.40625 344.91876 351.40625 346.325Q351.40625 347.73126 350.48438 348.66876Q349.57812 349.59064 348.20312 349.59064Q347.34375 349.59064 346.5625 349.2Q345.79688 348.8094 345.39062 348.075Q344.98438 347.325 344.98438 346.2469ZM346.67188 346.34064Q346.67188 347.2625 347.10938 347.7625Q347.54688 348.2469 348.1875 348.2469Q348.84375 348.2469 349.26562 347.7625Q349.70312 347.2625 349.70312 346.325Q349.70312 345.41876 349.26562 344.9344Q348.84375 344.4344 348.1875 344.4344Q347.54688 344.4344 347.10938 344.9344Q346.67188 345.41876 346.67188 346.34064ZM351.64062 343.23126L352.5625 343.23126L352.5625 342.7625Q352.5625 341.96564 352.71875 341.59064Q352.89062 341.2 353.32812 340.96564Q353.78125 340.71564 354.46875 340.71564Q355.17188 340.71564 355.84375 340.91876L355.625 342.075Q355.23438 341.98126 354.875 341.98126Q354.51562 341.98126 354.35938 342.15314Q354.20312 342.3094 354.20312 342.79376L354.20312 343.23126L355.4375 343.23126L355.4375 344.52814L354.20312 344.52814L354.20312 349.45L352.5625 349.45L352.5625 344.52814L351.64062 344.52814L351.64062 343.23126ZM361.625 349.45L361.625 345.84064L358.48438 340.85626L360.51562 340.85626L362.53125 344.2625L364.51562 340.85626L366.51562 340.85626L363.35938 345.84064L363.35938 349.45L361.625 349.45ZM370.96875 347.46564L372.60938 347.7469Q372.29688 348.65314 371.60938 349.1219Q370.92188 349.59064 369.90625 349.59064Q368.28125 349.59064 367.5 348.52814Q366.875 347.6844 366.875 346.3875Q366.875 344.84064 367.6875 343.96564Q368.5 343.09064 369.73438 343.09064Q371.125 343.09064 371.92188 344.0125Q372.73438 344.91876 372.6875 346.8094L368.5625 346.8094Q368.59375 347.54376 368.96875 347.95Q369.34375 348.35626 369.92188 348.35626Q370.29688 348.35626 370.5625 348.15314Q370.82812 347.9344 370.96875 347.46564ZM371.0625 345.8094Q371.04688 345.09064 370.6875 344.71564Q370.34375 344.34064 369.82812 344.34064Q369.29688 344.34064 368.9375 344.73126Q368.59375 345.1375 368.59375 345.8094L371.0625 345.8094ZM375.59375 345.1219L374.09375 344.85626Q374.34375 343.95 374.95312 343.52814Q375.57812 343.09064 376.79688 343.09064Q377.89062 343.09064 378.42188 343.35626Q378.96875 343.60626 379.1875 344.0125Q379.40625 344.40314 379.40625 345.48126L379.39062 347.40314Q379.39062 348.23126 379.46875 348.6219Q379.54688 348.9969 379.76562 349.45L378.14062 349.45Q378.07812 349.27814 377.98438 348.96564Q377.9375 348.8094 377.92188 348.7625Q377.5 349.1844 377.01562 349.3875Q376.54688 349.59064 376.0 349.59064Q375.03125 349.59064 374.46875 349.075Q373.92188 348.54376 373.92188 347.7469Q373.92188 347.21564 374.17188 346.8094Q374.4375 346.40314 374.89062 346.1844Q375.34375 345.95 376.20312 345.79376Q377.34375 345.575 377.79688 345.3875L377.79688 345.23126Q377.79688 344.7469 377.5625 344.54376Q377.32812 344.34064 376.67188 344.34064Q376.23438 344.34064 375.98438 344.5125Q375.75 344.6844 375.59375 345.1219ZM377.79688 346.46564Q377.48438 346.5594 376.79688 346.71564Q376.10938 346.85626 375.89062 346.9969Q375.57812 347.23126 375.57812 347.575Q375.57812 347.91876 375.82812 348.1844Q376.09375 348.4344 376.48438 348.4344Q376.9375 348.4344 377.34375 348.1375Q377.64062 347.91876 377.73438 347.59064Q377.79688 347.3875 377.79688 346.79376L377.79688 346.46564ZM382.9375 349.45L381.29688 349.45L381.29688 343.23126L382.82812 343.23126L382.82812 344.10626Q383.21875 343.48126 383.53125 343.29376Q383.84375 343.09064 384.23438 343.09064Q384.79688 343.09064 385.32812 343.40314L384.8125 344.825Q384.39062 344.5594 384.04688 344.5594Q383.6875 344.5594 383.45312 344.7625Q383.21875 344.95 383.07812 345.45Q382.9375 345.9344 382.9375 347.52814L382.9375 349.45Z" fill-rule="nonzero"/><path fill="#000000" d="M29.550013 236.46458L21.940638 234.87083L21.940638 237.68333L20.956263 237.48021L20.956263 230.71458L21.940638 230.93333L21.940638 233.71458L29.550013 235.30833L29.550013 236.46458ZM27.190638 231.58958Q25.362513 231.58958 24.175013 230.52708Q23.190638 229.63646 23.190638 228.19896Q23.190638 227.07396 23.893763 226.38646Q24.596888 225.69896 25.784388 225.69896Q26.862513 225.69896 27.784388 226.13646Q28.706263 226.57396 29.206263 227.37083Q29.690638 228.16771 29.690638 229.05833Q29.690638 229.77708 29.378138 230.37083Q29.065638 230.96458 28.503138 231.27708Q27.925013 231.58958 27.190638 231.58958ZM27.081263 230.54271Q27.956263 230.54271 28.409388 230.12083Q28.862513 229.69896 28.862513 229.04271Q28.862513 228.69896 28.737513 228.37083Q28.596888 228.02708 28.315638 227.74583Q28.034388 227.46458 27.675013 227.26146Q27.315638 227.05833 26.893763 226.93333Q26.315638 226.74583 25.784388 226.74583Q24.940638 226.74583 24.471888 227.18333Q24.003138 227.60521 24.003138 228.24583Q24.003138 228.74583 24.253138 229.15208Q24.487513 229.55833 24.940638 229.90208Q25.393763 230.23021 26.003138 230.38646Q26.612513 230.54271 27.081263 230.54271ZM28.690638 222.30833L29.550013 222.48021Q29.659388 222.85521 29.659388 223.21458Q29.659388 223.85521 29.346888 224.23021Q29.112513 224.51146 28.706263 224.51146Q28.503138 224.51146 27.768763 224.35521L24.143763 223.60521L24.143763 224.43333L23.331263 224.26146L23.331263 223.43333L21.800013 223.10521L21.065638 221.90208L23.331263 222.37083L23.331263 221.32396L24.143763 221.49583L24.143763 222.54271L27.581263 223.26146Q28.237513 223.40208 28.378138 223.40208Q28.565638 223.40208 28.659388 223.29271Q28.753138 223.18333 28.753138 222.93333Q28.753138 222.57396 28.690638 222.30833ZM28.768763 217.58958Q29.253138 218.13646 29.471888 218.65208Q29.690638 219.15208 29.690638 219.74583Q29.690638 220.60521 29.190638 221.13646Q28.675013 221.65208 27.878138 221.65208Q27.362513 221.65208 26.971888 221.41771Q26.565638 221.18333 26.331263 220.79271Q26.081263 220.40208 25.971888 219.82396Q25.893763 219.46458 25.862513 218.46458Q25.815638 217.46458 25.643763 217.04271Q25.206263 216.91771 24.925013 216.91771Q24.550013 216.91771 24.346888 217.18333Q24.050013 217.55833 24.050013 218.26146Q24.050013 218.93333 24.346888 219.35521Q24.643763 219.77708 25.190638 219.98021L25.096888 221.04271Q24.175013 220.71458 23.690638 220.01146Q23.190638 219.29271 23.190638 218.21458Q23.190638 217.05833 23.737513 216.38646Q24.143763 215.87083 24.800013 215.87083Q25.300013 215.87083 25.956263 216.01146L27.503138 216.35521Q28.237513 216.52708 28.706263 216.52708Q29.003138 216.52708 29.550013 216.38646L29.550013 217.46458Q29.237513 217.55833 28.768763 217.58958ZM26.393763 217.19896Q26.487513 217.41771 26.534388 217.68333Q26.581263 217.93333 26.628138 218.52708Q26.706263 219.44896 26.846888 219.83958Q26.971888 220.21458 27.253138 220.41771Q27.518763 220.60521 27.846888 220.60521Q28.300013 220.60521 28.581263 220.29271Q28.862513 219.98021 28.862513 219.41771Q28.862513 218.88646 28.596888 218.40208Q28.315638 217.91771 27.815638 217.63646Q27.315638 217.35521 26.393763 217.19896ZM29.550013 214.87083L20.956263 213.07396L20.956263 212.01146L29.550013 213.80833L29.550013 214.87083ZM26.768763 208.33958L26.659388 207.21458L26.971888 207.23021Q27.456263 207.23021 27.878138 206.99583Q28.284388 206.76146 28.518763 206.24583Q28.737513 205.71458 28.737513 204.98021Q28.737513 203.94896 28.284388 203.41771Q27.831263 202.87083 27.253138 202.87083Q26.846888 202.87083 26.518763 203.15208Q26.190638 203.44896 25.628138 204.76146Q25.190638 205.77708 24.956263 206.13646Q24.581263 206.71458 24.128138 206.99583Q23.675013 207.27708 23.096888 207.27708Q22.440638 207.27708 21.909388 206.91771Q21.378138 206.54271 21.096888 205.85521Q20.815638 205.15208 20.815638 204.26146Q20.815638 203.21458 21.175013 202.49583Q21.518763 201.77708 22.112513 201.44896Q22.690638 201.12083 23.221888 201.12083Q23.268763 201.12083 23.393763 201.13646L23.487513 202.24583Q23.128138 202.24583 22.909388 202.30833Q22.565638 202.41771 22.315638 202.66771Q22.065638 202.91771 21.925013 203.35521Q21.768763 203.77708 21.768763 204.30833Q21.768763 205.24583 22.190638 205.76146Q22.518763 206.16771 23.050013 206.16771Q23.362513 206.16771 23.612513 206.01146Q23.862513 205.83958 24.096888 205.40208Q24.268763 205.10521 24.768763 203.96458Q25.190638 203.04271 25.425013 202.68333Q25.721888 202.21458 26.175013 201.96458Q26.612513 201.71458 27.175013 201.71458Q27.878138 201.71458 28.471888 202.13646Q29.050013 202.55833 29.378138 203.30833Q29.690638 204.05833 29.690638 205.02708Q29.690638 206.48021 29.065638 207.41771Q28.425013 208.33958 26.768763 208.33958ZM28.768763 196.58958Q29.253138 197.13646 29.471888 197.65208Q29.690638 198.15208 29.690638 198.74583Q29.690638 199.60521 29.190638 200.13646Q28.675013 200.65208 27.878138 200.65208Q27.362513 200.65208 26.971888 200.41771Q26.565638 200.18333 26.331263 199.79271Q26.081263 199.40208 25.971888 198.82396Q25.893763 198.46458 25.862513 197.46458Q25.815638 196.46458 25.643763 196.04271Q25.206263 195.91771 24.925013 195.91771Q24.550013 195.91771 24.346888 196.18333Q24.050013 196.55833 24.050013 197.26146Q24.050013 197.93333 24.346888 198.35521Q24.643763 198.77708 25.190638 198.98021L25.096888 200.04271Q24.175013 199.71458 23.690638 199.01146Q23.190638 198.29271 23.190638 197.21458Q23.190638 196.05833 23.737513 195.38646Q24.143763 194.87083 24.800013 194.87083Q25.300013 194.87083 25.956263 195.01146L27.503138 195.35521Q28.237513 195.52708 28.706263 195.52708Q29.003138 195.52708 29.550013 195.38646L29.550013 196.46458Q29.237513 196.55833 28.768763 196.58958ZM26.393763 196.19896Q26.487513 196.41771 26.534388 196.68333Q26.581263 196.93333 26.628138 197.52708Q26.706263 198.44896 26.846888 198.83958Q26.971888 199.21458 27.253138 199.41771Q27.518763 199.60521 27.846888 199.60521Q28.300013 199.60521 28.581263 199.29271Q28.862513 198.98021 28.862513 198.41771Q28.862513 197.88646 28.596888 197.40208Q28.315638 196.91771 27.815638 196.63646Q27.315638 196.35521 26.393763 196.19896ZM29.550013 193.87083L20.956263 192.07396L20.956263 191.01146L29.550013 192.80833L29.550013 193.87083ZM27.440638 186.21458L27.534388 185.18333Q28.300013 185.40208 29.003138 186.21458Q29.690638 187.01146 29.690638 188.10521Q29.690638 188.80833 29.378138 189.38646Q29.050013 189.96458 28.440638 190.26146Q27.831263 190.55833 27.050013 190.55833Q26.034388 190.55833 25.081263 190.08958Q24.112513 189.62083 23.659388 188.87083Q23.190638 188.12083 23.190638 187.24583Q23.190638 186.13646 23.878138 185.48021Q24.565638 184.80833 25.768763 184.80833Q26.221888 184.80833 26.706263 184.88646L26.706263 189.46458Q26.878138 189.49583 27.034388 189.49583Q27.909388 189.49583 28.362513 189.08958Q28.815638 188.68333 28.815638 188.10521Q28.815638 187.55833 28.471888 187.04271Q28.112513 186.51146 27.440638 186.21458ZM25.893763 189.29271L25.893763 185.80833Q25.721888 185.79271 25.659388 185.79271Q24.862513 185.79271 24.440638 186.19896Q24.018763 186.58958 24.018763 187.21458Q24.018763 187.90208 24.487513 188.46458Q24.956263 189.02708 25.893763 189.29271ZM27.425013 183.68333L27.362513 182.62083Q27.815638 182.62083 28.143763 182.48021Q28.456263 182.33958 28.659388 181.96458Q28.862513 181.58958 28.862513 181.08958Q28.862513 180.38646 28.581263 180.04271Q28.300013 179.68333 27.925013 179.68333Q27.643763 179.68333 27.409388 179.88646Q27.159388 180.10521 26.800013 180.94896Q26.440638 181.79271 26.284388 182.02708Q26.050013 182.41771 25.721888 182.62083Q25.393763 182.80833 24.971888 182.80833Q24.237513 182.80833 23.721888 182.23021Q23.190638 181.63646 23.190638 180.58958Q23.190638 179.41771 23.737513 178.80833Q24.268763 178.18333 25.159388 178.16771L25.221888 179.19896Q24.659388 179.23021 24.331263 179.60521Q24.003138 179.98021 24.003138 180.66771Q24.003138 181.21458 24.253138 181.52708Q24.503138 181.82396 24.800013 181.82396Q25.096888 181.82396 25.315638 181.55833Q25.471888 181.38646 25.784388 180.65208Q26.315638 179.43333 26.612513 179.12083Q27.112513 178.60521 27.800013 178.60521Q28.268763 178.60521 28.721888 178.90208Q29.159388 179.18333 29.425013 179.76146Q29.690638 180.33958 29.690638 181.13646Q29.690638 182.21458 29.159388 182.96458Q28.628138 183.73021 27.425013 183.68333ZM22.159388 173.27708L20.956263 173.02708L20.956263 171.96458L22.159388 172.23021L22.159388 173.27708ZM29.550013 174.82396L23.331263 173.52708L23.331263 172.46458L29.550013 173.76146L29.550013 174.82396ZM29.550013 171.77708L23.331263 170.48021L23.331263 169.52708L24.409388 169.74583Q23.768763 169.12083 23.487513 168.57396Q23.190638 168.02708 23.190638 167.46458Q23.190638 166.71458 23.596888 166.29271Q24.003138 165.85521 24.690638 165.85521Q25.034388 165.85521 25.784388 165.99583L29.550013 166.79271L29.550013 167.85521L25.612513 167.02708Q25.034388 166.90208 24.753138 166.90208Q24.440638 166.90208 24.253138 167.12083Q24.065638 167.32396 24.065638 167.73021Q24.065638 168.54271 24.659388 169.18333Q25.237513 169.82396 26.659388 170.12083L29.550013 170.73021L29.550013 171.77708ZM20.956263 159.80833L20.956263 158.65208L26.237513 159.76146Q26.893763 159.88646 27.206263 159.88646Q27.909388 159.88646 28.331263 159.35521Q28.753138 158.80833 28.753138 157.98021Q28.753138 157.32396 28.456263 156.76146Q28.143763 156.18333 27.565638 155.85521Q26.971888 155.52708 25.690638 155.26146L20.956263 154.27708L20.956263 153.13646L26.003138 154.18333Q27.284388 154.44896 28.050013 154.88646Q28.800013 155.32396 29.253138 156.10521Q29.706263 156.88646 29.706263 157.91771Q29.706263 158.88646 29.378138 159.60521Q29.050013 160.30833 28.487513 160.66771Q27.925013 161.02708 27.206263 161.02708Q26.753138 161.02708 25.643763 160.77708L20.956263 159.80833ZM26.768763 152.33958L26.659388 151.21458L26.971888 151.23021Q27.456263 151.23021 27.878138 150.99583Q28.284388 150.76146 28.518763 150.24583Q28.737513 149.71458 28.737513 148.98021Q28.737513 147.94896 28.284388 147.41771Q27.831263 146.87083 27.253138 146.87083Q26.846888 146.87083 26.518763 147.15208Q26.190638 147.44896 25.628138 148.76146Q25.190638 149.77708 24.956263 150.13646Q24.581263 150.71458 24.128138 150.99583Q23.675013 151.27708 23.096888 151.27708Q22.440638 151.27708 21.909388 150.91771Q21.378138 150.54271 21.096888 149.85521Q20.815638 149.15208 20.815638 148.26146Q20.815638 147.21458 21.175013 146.49583Q21.518763 145.77708 22.112513 145.44896Q22.690638 145.12083 23.221888 145.12083Q23.268763 145.12083 23.393763 145.13646L23.487513 146.24583Q23.128138 146.24583 22.909388 146.30833Q22.565638 146.41771 22.315638 146.66771Q22.065638 146.91771 21.925013 147.35521Q21.768763 147.77708 21.768763 148.30833Q21.768763 149.24583 22.190638 149.76146Q22.518763 150.16771 23.050013 150.16771Q23.362513 150.16771 23.612513 150.01146Q23.862513 149.83958 24.096888 149.40208Q24.268763 149.10521 24.768763 147.96458Q25.190638 147.04271 25.425013 146.68333Q25.721888 146.21458 26.175013 145.96458Q26.612513 145.71458 27.175013 145.71458Q27.878138 145.71458 28.471888 146.13646Q29.050013 146.55833 29.378138 147.30833Q29.690638 148.05833 29.690638 149.02708Q29.690638 150.48021 29.065638 151.41771Q28.425013 152.33958 26.768763 152.33958ZM29.550013 144.65208L20.956263 142.85521L20.956263 140.26146Q20.956263 139.33958 21.096888 138.83958Q21.268763 138.13646 21.737513 137.63646Q22.206263 137.13646 22.909388 136.88646Q23.596888 136.63646 24.471888 136.63646Q25.503138 136.63646 26.362513 136.94896Q27.206263 137.26146 27.862513 137.77708Q28.503138 138.27708 28.878138 138.83958Q29.237513 139.38646 29.409388 140.13646Q29.550013 140.71458 29.550013 141.55833L29.550013 144.65208ZM28.581263 143.29271L28.581263 141.93333Q28.581263 141.01146 28.409388 140.30833Q28.300013 139.85521 28.096888 139.54271Q27.831263 139.12083 27.393763 138.77708Q26.831263 138.33958 26.096888 138.07396Q25.346888 137.80833 24.409388 137.80833Q23.378138 137.80833 22.815638 138.16771Q22.253138 138.52708 22.065638 139.08958Q21.940638 139.51146 21.940638 140.38646L21.940638 141.90208L28.581263 143.29271Z" fill-rule="nonzero"/><path fill="#000000" d="M87.53438 305.6844L87.53438 304.6375Q86.75313 304.52814 86.25313 304.27814Q85.75313 304.02814 85.39375 303.46564Q85.03438 302.8875 84.97188 302.0594L86.03438 301.8719Q86.15938 302.71564 86.47188 303.10626Q86.925 303.66876 87.53438 303.7469L87.53438 300.3875Q86.89375 300.2625 86.20625 299.8719Q85.70625 299.59064 85.425 299.10626Q85.15938 298.60626 85.15938 297.96564Q85.15938 296.84064 85.95625 296.15314Q86.4875 295.6844 87.53438 295.575L87.53438 295.075L88.15938 295.075L88.15938 295.575Q89.08125 295.65314 89.6125 296.10626Q90.31563 296.6844 90.45625 297.6844L89.3625 297.85626Q89.26875 297.23126 88.97188 296.90314Q88.675 296.575 88.15938 296.46564L88.15938 299.4969Q88.95625 299.7 89.22188 299.8094Q89.70625 300.02814 90.01875 300.34064Q90.33125 300.65314 90.4875 301.09064Q90.65938 301.5125 90.65938 302.0125Q90.65938 303.10626 89.95625 303.84064Q89.26875 304.575 88.15938 304.6219L88.15938 305.6844L87.53438 305.6844ZM87.53438 296.45Q86.925 296.54376 86.56563 296.95Q86.22188 297.34064 86.22188 297.8875Q86.22188 298.41876 86.51875 298.79376Q86.81563 299.15314 87.53438 299.3719L87.53438 296.45ZM88.15938 303.7469Q88.76875 303.66876 89.175 303.21564Q89.58125 302.7469 89.58125 302.075Q89.58125 301.4969 89.28438 301.15314Q89.00313 300.8094 88.15938 300.52814L88.15938 303.7469ZM92.05 300.21564Q92.05 298.6844 92.3625 297.7625Q92.675 296.825 93.28438 296.325Q93.90938 295.825 94.84688 295.825Q95.53438 295.825 96.05 296.10626Q96.58125 296.3875 96.925 296.91876Q97.26875 297.4344 97.45625 298.1844Q97.64375 298.9344 97.64375 300.21564Q97.64375 301.73126 97.33125 302.65314Q97.03438 303.575 96.40938 304.09064Q95.8 304.59064 94.84688 304.59064Q93.6125 304.59064 92.89375 303.7Q92.05 302.6375 92.05 300.21564ZM93.12813 300.21564Q93.12813 302.325 93.62813 303.02814Q94.12813 303.73126 94.84688 303.73126Q95.58125 303.73126 96.06563 303.02814Q96.56563 302.325 96.56563 300.21564Q96.56563 298.09064 96.06563 297.40314Q95.58125 296.7 94.83125 296.7Q94.1125 296.7 93.675 297.3094Q93.12813 298.09064 93.12813 300.21564Z" fill-rule="nonzero"/><path fill="#000000" d="M56.534374 246.05104L56.534374 245.00417Q55.753124 244.89479 55.253124 244.64479Q54.753124 244.39479 54.39375 243.83229Q54.034374 243.25417 53.971874 242.42604L55.034374 242.23854Q55.159374 243.08229 55.471874 243.47292Q55.925 244.03542 56.534374 244.11354L56.534374 240.75417Q55.89375 240.62917 55.20625 240.23854Q54.70625 239.95729 54.425 239.47292Q54.159374 238.97292 54.159374 238.33229Q54.159374 237.20729 54.95625 236.51979Q55.4875 236.05104 56.534374 235.94167L56.534374 235.44167L57.159374 235.44167L57.159374 235.94167Q58.08125 236.01979 58.6125 236.47292Q59.315624 237.05104 59.45625 238.05104L58.3625 238.22292Q58.26875 237.59792 57.971874 237.26979Q57.675 236.94167 57.159374 236.83229L57.159374 239.86354Q57.95625 240.06667 58.221874 240.17604Q58.70625 240.39479 59.01875 240.70729Q59.33125 241.01979 59.4875 241.45729Q59.659374 241.87917 59.659374 242.37917Q59.659374 243.47292 58.95625 244.20729Q58.26875 244.94167 57.159374 244.98854L57.159374 246.05104L56.534374 246.05104ZM56.534374 236.81667Q55.925 236.91042 55.565624 237.31667Q55.221874 237.70729 55.221874 238.25417Q55.221874 238.78542 55.51875 239.16042Q55.815624 239.51979 56.534374 239.73854L56.534374 236.81667ZM57.159374 244.11354Q57.76875 244.03542 58.175 243.58229Q58.58125 243.11354 58.58125 242.44167Q58.58125 241.86354 58.284374 241.51979Q58.003124 241.17604 57.159374 240.89479L57.159374 244.11354ZM66.59688 243.80104L66.59688 244.81667L60.909374 244.81667Q60.909374 244.44167 61.034374 244.08229Q61.253124 243.50417 61.721874 242.94167Q62.20625 242.37917 63.1125 241.64479Q64.51875 240.48854 65.00313 239.81667Q65.50313 239.14479 65.50313 238.55104Q65.50313 237.92604 65.05 237.50417Q64.59688 237.06667 63.878124 237.06667Q63.1125 237.06667 62.659374 237.51979Q62.20625 237.97292 62.190624 238.78542L61.1125 238.67604Q61.221874 237.45729 61.940624 236.83229Q62.675 236.19167 63.909374 236.19167Q65.14375 236.19167 65.8625 236.87917Q66.58125 237.56667 66.58125 238.58229Q66.58125 239.09792 66.3625 239.59792Q66.15938 240.08229 65.65938 240.64479Q65.175 241.19167 64.05 242.14479Q63.096874 242.94167 62.815624 243.23854Q62.55 243.51979 62.378124 243.80104L66.59688 243.80104ZM68.05 240.58229Q68.05 239.05104 68.3625 238.12917Q68.675 237.19167 69.28438 236.69167Q69.90938 236.19167 70.84688 236.19167Q71.53438 236.19167 72.05 236.47292Q72.58125 236.75417 72.925 237.28542Q73.26875 237.80104 73.45625 238.55104Q73.64375 239.30104 73.64375 240.58229Q73.64375 242.09792 73.33125 243.01979Q73.03438 243.94167 72.40938 244.45729Q71.8 244.95729 70.84688 244.95729Q69.6125 244.95729 68.89375 244.06667Q68.05 243.00417 68.05 240.58229ZM69.12813 240.58229Q69.12813 242.69167 69.62813 243.39479Q70.12813 244.09792 70.84688 244.09792Q71.58125 244.09792 72.06563 243.39479Q72.56563 242.69167 72.56563 240.58229Q72.56563 238.45729 72.06563 237.76979Q71.58125 237.06667 70.83125 237.06667Q70.1125 237.06667 69.675 237.67604Q69.12813 238.45729 69.12813 240.58229ZM75.6125 244.81667L75.6125 243.61354L76.81563 243.61354L76.81563 244.81667Q76.81563 245.47292 76.58125 245.87917Q76.34688 246.30104 75.84688 246.51979L75.55 246.06667Q75.87813 245.92604 76.03438 245.62917Q76.19063 245.34792 76.22188 244.81667L75.6125 244.81667ZM78.05 240.58229Q78.05 239.05104 78.3625 238.12917Q78.675 237.19167 79.28438 236.69167Q79.90938 236.19167 80.84688 236.19167Q81.53438 236.19167 82.05 236.47292Q82.58125 236.75417 82.925 237.28542Q83.26875 237.80104 83.45625 238.55104Q83.64375 239.30104 83.64375 240.58229Q83.64375 242.09792 83.33125 243.01979Q83.03438 243.94167 82.40938 244.45729Q81.8 244.95729 80.84688 244.95729Q79.6125 244.95729 78.89375 244.06667Q78.05 243.00417 78.05 240.58229ZM79.12813 240.58229Q79.12813 242.69167 79.62813 243.39479Q80.12813 244.09792 80.84688 244.09792Q81.58125 244.09792 82.06563 243.39479Q82.56563 242.69167 82.56563 240.58229Q82.56563 238.45729 82.06563 237.76979Q81.58125 237.06667 80.83125 237.06667Q80.1125 237.06667 79.675 237.67604Q79.12813 238.45729 79.12813 240.58229ZM85.05 240.58229Q85.05 239.05104 85.3625 238.12917Q85.675 237.19167 86.28438 236.69167Q86.90938 236.19167 87.84688 236.19167Q88.53438 236.19167 89.05 236.47292Q89.58125 236.75417 89.925 237.28542Q90.26875 237.80104 90.45625 238.55104Q90.64375 239.30104 90.64375 240.58229Q90.64375 242.09792 90.33125 243.01979Q90.03438 243.94167 89.40938 244.45729Q88.8 244.95729 87.84688 244.95729Q86.6125 244.95729 85.89375 244.06667Q85.05 243.00417 85.05 240.58229ZM86.12813 240.58229Q86.12813 242.69167 86.62813 243.39479Q87.12813 244.09792 87.84688 244.09792Q88.58125 244.09792 89.06563 243.39479Q89.56563 242.69167 89.56563 240.58229Q89.56563 238.45729 89.06563 237.76979Q88.58125 237.06667 87.83125 237.06667Q87.1125 237.06667 86.675 237.67604Q86.12813 238.45729 86.12813 240.58229ZM92.05 240.58229Q92.05 239.05104 92.3625 238.12917Q92.675 237.19167 93.28438 236.69167Q93.90938 236.19167 94.84688 236.19167Q95.53438 236.19167 96.05 236.47292Q96.58125 236.75417 96.925 237.28542Q97.26875 237.80104 97.45625 238.55104Q97.64375 239.30104 97.64375 240.58229Q97.64375 242.09792 97.33125 243.01979Q97.03438 243.94167 96.40938 244.45729Q95.8 244.95729 94.84688 244.95729Q93.6125 244.95729 92.89375 244.06667Q92.05 243.00417 92.05 240.58229ZM93.12813 240.58229Q93.12813 242.69167 93.62813 243.39479Q94.12813 244.09792 94.84688 244.09792Q95.58125 244.09792 96.06563 243.39479Q96.56563 242.69167 96.56563 240.58229Q96.56563 238.45729 96.06563 237.76979Q95.58125 237.06667 94.83125 237.06667Q94.1125 237.06667 93.675 237.67604Q93.12813 238.45729 93.12813 240.58229Z" fill-rule="nonzero"/><path fill="#000000" d="M56.534374 186.41771L56.534374 185.37083Q55.753124 185.26146 55.253124 185.01146Q54.753124 184.76146 54.39375 184.19896Q54.034374 183.62083 53.971874 182.79271L55.034374 182.60521Q55.159374 183.44896 55.471874 183.83958Q55.925 184.40208 56.534374 184.48021L56.534374 181.12083Q55.89375 180.99583 55.20625 180.60521Q54.70625 180.32396 54.425 179.83958Q54.159374 179.33958 54.159374 178.69896Q54.159374 177.57396 54.95625 176.88646Q55.4875 176.41771 56.534374 176.30833L56.534374 175.80833L57.159374 175.80833L57.159374 176.30833Q58.08125 176.38646 58.6125 176.83958Q59.315624 177.41771 59.45625 178.41771L58.3625 178.58958Q58.26875 177.96458 57.971874 177.63646Q57.675 177.30833 57.159374 177.19896L57.159374 180.23021Q57.95625 180.43333 58.221874 180.54271Q58.70625 180.76146 59.01875 181.07396Q59.33125 181.38646 59.4875 181.82396Q59.659374 182.24583 59.659374 182.74583Q59.659374 183.83958 58.95625 184.57396Q58.26875 185.30833 57.159374 185.35521L57.159374 186.41771L56.534374 186.41771ZM56.534374 177.18333Q55.925 177.27708 55.565624 177.68333Q55.221874 178.07396 55.221874 178.62083Q55.221874 179.15208 55.51875 179.52708Q55.815624 179.88646 56.534374 180.10521L56.534374 177.18333ZM57.159374 184.48021Q57.76875 184.40208 58.175 183.94896Q58.58125 183.48021 58.58125 182.80833Q58.58125 182.23021 58.284374 181.88646Q58.003124 181.54271 57.159374 181.26146L57.159374 184.48021ZM64.425 185.18333L64.425 183.12083L60.70625 183.12083L60.70625 182.15208L64.62813 176.58958L65.4875 176.58958L65.4875 182.15208L66.64375 182.15208L66.64375 183.12083L65.4875 183.12083L65.4875 185.18333L64.425 185.18333ZM64.425 182.15208L64.425 178.29271L61.7375 182.15208L64.425 182.15208ZM68.05 180.94896Q68.05 179.41771 68.3625 178.49583Q68.675 177.55833 69.28438 177.05833Q69.90938 176.55833 70.84688 176.55833Q71.53438 176.55833 72.05 176.83958Q72.58125 177.12083 72.925 177.65208Q73.26875 178.16771 73.45625 178.91771Q73.64375 179.66771 73.64375 180.94896Q73.64375 182.46458 73.33125 183.38646Q73.03438 184.30833 72.40938 184.82396Q71.8 185.32396 70.84688 185.32396Q69.6125 185.32396 68.89375 184.43333Q68.05 183.37083 68.05 180.94896ZM69.12813 180.94896Q69.12813 183.05833 69.62813 183.76146Q70.12813 184.46458 70.84688 184.46458Q71.58125 184.46458 72.06563 183.76146Q72.56563 183.05833 72.56563 180.94896Q72.56563 178.82396 72.06563 178.13646Q71.58125 177.43333 70.83125 177.43333Q70.1125 177.43333 69.675 178.04271Q69.12813 178.82396 69.12813 180.94896ZM75.6125 185.18333L75.6125 183.98021L76.81563 183.98021L76.81563 185.18333Q76.81563 185.83958 76.58125 186.24583Q76.34688 186.66771 75.84688 186.88646L75.55 186.43333Q75.87813 186.29271 76.03438 185.99583Q76.19063 185.71458 76.22188 185.18333L75.6125 185.18333ZM78.05 180.94896Q78.05 179.41771 78.3625 178.49583Q78.675 177.55833 79.28438 177.05833Q79.90938 176.55833 80.84688 176.55833Q81.53438 176.55833 82.05 176.83958Q82.58125 177.12083 82.925 177.65208Q83.26875 178.16771 83.45625 178.91771Q83.64375 179.66771 83.64375 180.94896Q83.64375 182.46458 83.33125 183.38646Q83.03438 184.30833 82.40938 184.82396Q81.8 185.32396 80.84688 185.32396Q79.6125 185.32396 78.89375 184.43333Q78.05 183.37083 78.05 180.94896ZM79.12813 180.94896Q79.12813 183.05833 79.62813 183.76146Q80.12813 184.46458 80.84688 184.46458Q81.58125 184.46458 82.06563 183.76146Q82.56563 183.05833 82.56563 180.94896Q82.56563 178.82396 82.06563 178.13646Q81.58125 177.43333 80.83125 177.43333Q80.1125 177.43333 79.675 178.04271Q79.12813 178.82396 79.12813 180.94896ZM85.05 180.94896Q85.05 179.41771 85.3625 178.49583Q85.675 177.55833 86.28438 177.05833Q86.90938 176.55833 87.84688 176.55833Q88.53438 176.55833 89.05 176.83958Q89.58125 177.12083 89.925 177.65208Q90.26875 178.16771 90.45625 178.91771Q90.64375 179.66771 90.64375 180.94896Q90.64375 182.46458 90.33125 183.38646Q90.03438 184.30833 89.40938 184.82396Q88.8 185.32396 87.84688 185.32396Q86.6125 185.32396 85.89375 184.43333Q85.05 183.37083 85.05 180.94896ZM86.12813 180.94896Q86.12813 183.05833 86.62813 183.76146Q87.12813 184.46458 87.84688 184.46458Q88.58125 184.46458 89.06563 183.76146Q89.56563 183.05833 89.56563 180.94896Q89.56563 178.82396 89.06563 178.13646Q88.58125 177.43333 87.83125 177.43333Q87.1125 177.43333 86.675 178.04271Q86.12813 178.82396 86.12813 180.94896ZM92.05 180.94896Q92.05 179.41771 92.3625 178.49583Q92.675 177.55833 93.28438 177.05833Q93.90938 176.55833 94.84688 176.55833Q95.53438 176.55833 96.05 176.83958Q96.58125 177.12083 96.925 177.65208Q97.26875 178.16771 97.45625 178.91771Q97.64375 179.66771 97.64375 180.94896Q97.64375 182.46458 97.33125 183.38646Q97.03438 184.30833 96.40938 184.82396Q95.8 185.32396 94.84688 185.32396Q93.6125 185.32396 92.89375 184.43333Q92.05 183.37083 92.05 180.94896ZM93.12813 180.94896Q93.12813 183.05833 93.62813 183.76146Q94.12813 184.46458 94.84688 184.46458Q95.58125 184.46458 96.06563 183.76146Q96.56563 183.05833 96.56563 180.94896Q96.56563 178.82396 96.06563 178.13646Q95.58125 177.43333 94.83125 177.43333Q94.1125 177.43333 93.675 178.04271Q93.12813 178.82396 93.12813 180.94896Z" fill-rule="nonzero"/><path fill="#000000" d="M56.534374 126.78438L56.534374 125.7375Q55.753124 125.62813 55.253124 125.37813Q54.753124 125.12813 54.39375 124.56563Q54.034374 123.9875 53.971874 123.15938L55.034374 122.97188Q55.159374 123.81563 55.471874 124.20625Q55.925 124.76875 56.534374 124.84688L56.534374 121.4875Q55.89375 121.3625 55.20625 120.97188Q54.70625 120.69063 54.425 120.20625Q54.159374 119.70625 54.159374 119.06563Q54.159374 117.94063 54.95625 117.25313Q55.4875 116.78438 56.534374 116.675L56.534374 116.175L57.159374 116.175L57.159374 116.675Q58.08125 116.75313 58.6125 117.20625Q59.315624 117.78438 59.45625 118.78438L58.3625 118.95625Q58.26875 118.33125 57.971874 118.00313Q57.675 117.675 57.159374 117.56563L57.159374 120.59688Q57.95625 120.8 58.221874 120.90938Q58.70625 121.12813 59.01875 121.44063Q59.33125 121.75313 59.4875 122.19063Q59.659374 122.6125 59.659374 123.1125Q59.659374 124.20625 58.95625 124.94063Q58.26875 125.675 57.159374 125.72188L57.159374 126.78438L56.534374 126.78438ZM56.534374 117.55Q55.925 117.64375 55.565624 118.05Q55.221874 118.44063 55.221874 118.9875Q55.221874 119.51875 55.51875 119.89375Q55.815624 120.25313 56.534374 120.47188L56.534374 117.55ZM57.159374 124.84688Q57.76875 124.76875 58.175 124.31563Q58.58125 123.84688 58.58125 123.175Q58.58125 122.59688 58.284374 122.25313Q58.003124 121.90938 57.159374 121.62813L57.159374 124.84688ZM66.51875 119.06563L65.47188 119.14375Q65.33125 118.51875 65.08125 118.2375Q64.64375 117.78438 64.01875 117.78438Q63.51875 117.78438 63.128124 118.06563Q62.64375 118.44063 62.346874 119.14375Q62.065624 119.83125 62.05 121.1125Q62.425 120.53438 62.971874 120.25313Q63.534374 119.97188 64.14375 119.97188Q65.19063 119.97188 65.925 120.75313Q66.675 121.53438 66.675 122.75313Q66.675 123.56563 66.31563 124.26875Q65.97188 124.95625 65.3625 125.33125Q64.75313 125.69063 63.9875 125.69063Q62.659374 125.69063 61.83125 124.72188Q61.003124 123.75313 61.003124 121.53438Q61.003124 119.03438 61.925 117.90938Q62.721874 116.925 64.08125 116.925Q65.09688 116.925 65.7375 117.50313Q66.39375 118.06563 66.51875 119.06563ZM62.221874 122.76875Q62.221874 123.31563 62.440624 123.81563Q62.675 124.3 63.08125 124.56563Q63.503124 124.83125 63.971874 124.83125Q64.62813 124.83125 65.1125 124.3Q65.59688 123.75313 65.59688 122.83125Q65.59688 121.94063 65.1125 121.425Q64.64375 120.90938 63.925 120.90938Q63.20625 120.90938 62.70625 121.425Q62.221874 121.94063 62.221874 122.76875ZM68.05 121.31563Q68.05 119.78438 68.3625 118.8625Q68.675 117.925 69.28438 117.425Q69.90938 116.925 70.84688 116.925Q71.53438 116.925 72.05 117.20625Q72.58125 117.4875 72.925 118.01875Q73.26875 118.53438 73.45625 119.28438Q73.64375 120.03438 73.64375 121.31563Q73.64375 122.83125 73.33125 123.75313Q73.03438 124.675 72.40938 125.19063Q71.8 125.69063 70.84688 125.69063Q69.6125 125.69063 68.89375 124.8Q68.05 123.7375 68.05 121.31563ZM69.12813 121.31563Q69.12813 123.425 69.62813 124.12813Q70.12813 124.83125 70.84688 124.83125Q71.58125 124.83125 72.06563 124.12813Q72.56563 123.425 72.56563 121.31563Q72.56563 119.19063 72.06563 118.50313Q71.58125 117.8 70.83125 117.8Q70.1125 117.8 69.675 118.40938Q69.12813 119.19063 69.12813 121.31563ZM75.6125 125.55L75.6125 124.34688L76.81563 124.34688L76.81563 125.55Q76.81563 126.20625 76.58125 126.6125Q76.34688 127.03438 75.84688 127.25313L75.55 126.8Q75.87813 126.65938 76.03438 126.3625Q76.19063 126.08125 76.22188 125.55L75.6125 125.55ZM78.05 121.31563Q78.05 119.78438 78.3625 118.8625Q78.675 117.925 79.28438 117.425Q79.90938 116.925 80.84688 116.925Q81.53438 116.925 82.05 117.20625Q82.58125 117.4875 82.925 118.01875Q83.26875 118.53438 83.45625 119.28438Q83.64375 120.03438 83.64375 121.31563Q83.64375 122.83125 83.33125 123.75313Q83.03438 124.675 82.40938 125.19063Q81.8 125.69063 80.84688 125.69063Q79.6125 125.69063 78.89375 124.8Q78.05 123.7375 78.05 121.31563ZM79.12813 121.31563Q79.12813 123.425 79.62813 124.12813Q80.12813 124.83125 80.84688 124.83125Q81.58125 124.83125 82.06563 124.12813Q82.56563 123.425 82.56563 121.31563Q82.56563 119.19063 82.06563 118.50313Q81.58125 117.8 80.83125 117.8Q80.1125 117.8 79.675 118.40938Q79.12813 119.19063 79.12813 121.31563ZM85.05 121.31563Q85.05 119.78438 85.3625 118.8625Q85.675 117.925 86.28438 117.425Q86.90938 116.925 87.84688 116.925Q88.53438 116.925 89.05 117.20625Q89.58125 117.4875 89.925 118.01875Q90.26875 118.53438 90.45625 119.28438Q90.64375 120.03438 90.64375 121.31563Q90.64375 122.83125 90.33125 123.75313Q90.03438 124.675 89.40938 125.19063Q88.8 125.69063 87.84688 125.69063Q86.6125 125.69063 85.89375 124.8Q85.05 123.7375 85.05 121.31563ZM86.12813 121.31563Q86.12813 123.425 86.62813 124.12813Q87.12813 124.83125 87.84688 124.83125Q88.58125 124.83125 89.06563 124.12813Q89.56563 123.425 89.56563 121.31563Q89.56563 119.19063 89.06563 118.50313Q88.58125 117.8 87.83125 117.8Q87.1125 117.8 86.675 118.40938Q86.12813 119.19063 86.12813 121.31563ZM92.05 121.31563Q92.05 119.78438 92.3625 118.8625Q92.675 117.925 93.28438 117.425Q93.90938 116.925 94.84688 116.925Q95.53438 116.925 96.05 117.20625Q96.58125 117.4875 96.925 118.01875Q97.26875 118.53438 97.45625 119.28438Q97.64375 120.03438 97.64375 121.31563Q97.64375 122.83125 97.33125 123.75313Q97.03438 124.675 96.40938 125.19063Q95.8 125.69063 94.84688 125.69063Q93.6125 125.69063 92.89375 124.8Q92.05 123.7375 92.05 121.31563ZM93.12813 121.31563Q93.12813 123.425 93.62813 124.12813Q94.12813 124.83125 94.84688 124.83125Q95.58125 124.83125 96.06563 124.12813Q96.56563 123.425 96.56563 121.31563Q96.56563 119.19063 96.06563 118.50313Q95.58125 117.8 94.83125 117.8Q94.1125 117.8 93.675 118.40938Q93.12813 119.19063 93.12813 121.31563Z" fill-rule="nonzero"/><path fill="#000000" d="M56.534374 67.15104L56.534374 66.104164Q55.753124 65.99479 55.253124 65.74479Q54.753124 65.49479 54.39375 64.93229Q54.034374 64.354164 53.971874 63.52604L55.034374 63.33854Q55.159374 64.18229 55.471874 64.572914Q55.925 65.135414 56.534374 65.21354L56.534374 61.854164Q55.89375 61.729164 55.20625 61.33854Q54.70625 61.05729 54.425 60.572914Q54.159374 60.072914 54.159374 59.43229Q54.159374 58.30729 54.95625 57.61979Q55.4875 57.15104 56.534374 57.041664L56.534374 56.541664L57.159374 56.541664L57.159374 57.041664Q58.08125 57.11979 58.6125 57.572914Q59.315624 58.15104 59.45625 59.15104L58.3625 59.322914Q58.26875 58.697914 57.971874 58.36979Q57.675 58.041664 57.159374 57.93229L57.159374 60.96354Q57.95625 61.166664 58.221874 61.27604Q58.70625 61.49479 59.01875 61.80729Q59.33125 62.11979 59.4875 62.55729Q59.659374 62.979164 59.659374 63.479164Q59.659374 64.572914 58.95625 65.30729Q58.26875 66.041664 57.159374 66.08854L57.159374 67.15104L56.534374 67.15104ZM56.534374 57.916664Q55.925 58.010414 55.565624 58.416664Q55.221874 58.80729 55.221874 59.354164Q55.221874 59.885414 55.51875 60.260414Q55.815624 60.61979 56.534374 60.83854L56.534374 57.916664ZM57.159374 65.21354Q57.76875 65.135414 58.175 64.68229Q58.58125 64.21354 58.58125 63.541664Q58.58125 62.96354 58.284374 62.61979Q58.003124 62.27604 57.159374 61.99479L57.159374 65.21354ZM62.675 61.260414Q62.01875 61.010414 61.690624 60.572914Q61.378124 60.11979 61.378124 59.510414Q61.378124 58.572914 62.05 57.93229Q62.7375 57.291664 63.846874 57.291664Q64.97188 57.291664 65.65938 57.947914Q66.34688 58.604164 66.34688 59.541664Q66.34688 60.135414 66.03438 60.572914Q65.72188 61.010414 65.08125 61.260414Q65.87813 61.510414 66.28438 62.08854Q66.69063 62.666664 66.69063 63.46354Q66.69063 64.55729 65.90938 65.30729Q65.14375 66.05729 63.8625 66.05729Q62.596874 66.05729 61.815624 65.30729Q61.034374 64.55729 61.034374 63.43229Q61.034374 62.58854 61.45625 62.02604Q61.89375 61.46354 62.675 61.260414ZM62.45625 59.46354Q62.45625 60.072914 62.846874 60.46354Q63.253124 60.854164 63.878124 60.854164Q64.4875 60.854164 64.87813 60.479164Q65.26875 60.08854 65.26875 59.52604Q65.26875 58.947914 64.8625 58.55729Q64.45625 58.15104 63.8625 58.15104Q63.253124 58.15104 62.846874 58.541664Q62.45625 58.93229 62.45625 59.46354ZM62.128124 63.43229Q62.128124 63.885414 62.33125 64.30729Q62.55 64.729164 62.971874 64.96354Q63.39375 65.197914 63.878124 65.197914Q64.62813 65.197914 65.1125 64.71354Q65.6125 64.229164 65.6125 63.479164Q65.6125 62.71354 65.1125 62.21354Q64.6125 61.71354 63.846874 61.71354Q63.096874 61.71354 62.6125 62.21354Q62.128124 62.697914 62.128124 63.43229ZM68.05 61.68229Q68.05 60.15104 68.3625 59.229164Q68.675 58.291664 69.28438 57.791664Q69.90938 57.291664 70.84688 57.291664Q71.53438 57.291664 72.05 57.572914Q72.58125 57.854164 72.925 58.385414Q73.26875 58.90104 73.45625 59.65104Q73.64375 60.40104 73.64375 61.68229Q73.64375 63.197914 73.33125 64.11979Q73.03438 65.041664 72.40938 65.55729Q71.8 66.05729 70.84688 66.05729Q69.6125 66.05729 68.89375 65.166664Q68.05 64.104164 68.05 61.68229ZM69.12813 61.68229Q69.12813 63.791664 69.62813 64.49479Q70.12813 65.197914 70.84688 65.197914Q71.58125 65.197914 72.06563 64.49479Q72.56563 63.791664 72.56563 61.68229Q72.56563 59.55729 72.06563 58.86979Q71.58125 58.166664 70.83125 58.166664Q70.1125 58.166664 69.675 58.77604Q69.12813 59.55729 69.12813 61.68229ZM75.6125 65.916664L75.6125 64.71354L76.81563 64.71354L76.81563 65.916664Q76.81563 66.572914 76.58125 66.979164Q76.34688 67.40104 75.84688 67.61979L75.55 67.166664Q75.87813 67.02604 76.03438 66.729164Q76.19063 66.447914 76.22188 65.916664L75.6125 65.916664ZM78.05 61.68229Q78.05 60.15104 78.3625 59.229164Q78.675 58.291664 79.28438 57.791664Q79.90938 57.291664 80.84688 57.291664Q81.53438 57.291664 82.05 57.572914Q82.58125 57.854164 82.925 58.385414Q83.26875 58.90104 83.45625 59.65104Q83.64375 60.40104 83.64375 61.68229Q83.64375 63.197914 83.33125 64.11979Q83.03438 65.041664 82.40938 65.55729Q81.8 66.05729 80.84688 66.05729Q79.6125 66.05729 78.89375 65.166664Q78.05 64.104164 78.05 61.68229ZM79.12813 61.68229Q79.12813 63.791664 79.62813 64.49479Q80.12813 65.197914 80.84688 65.197914Q81.58125 65.197914 82.06563 64.49479Q82.56563 63.791664 82.56563 61.68229Q82.56563 59.55729 82.06563 58.86979Q81.58125 58.166664 80.83125 58.166664Q80.1125 58.166664 79.675 58.77604Q79.12813 59.55729 79.12813 61.68229ZM85.05 61.68229Q85.05 60.15104 85.3625 59.229164Q85.675 58.291664 86.28438 57.791664Q86.90938 57.291664 87.84688 57.291664Q88.53438 57.291664 89.05 57.572914Q89.58125 57.854164 89.925 58.385414Q90.26875 58.90104 90.45625 59.65104Q90.64375 60.40104 90.64375 61.68229Q90.64375 63.197914 90.33125 64.11979Q90.03438 65.041664 89.40938 65.55729Q88.8 66.05729 87.84688 66.05729Q86.6125 66.05729 85.89375 65.166664Q85.05 64.104164 85.05 61.68229ZM86.12813 61.68229Q86.12813 63.791664 86.62813 64.49479Q87.12813 65.197914 87.84688 65.197914Q88.58125 65.197914 89.06563 64.49479Q89.56563 63.791664 89.56563 61.68229Q89.56563 59.55729 89.06563 58.86979Q88.58125 58.166664 87.83125 58.166664Q87.1125 58.166664 86.675 58.77604Q86.12813 59.55729 86.12813 61.68229ZM92.05 61.68229Q92.05 60.15104 92.3625 59.229164Q92.675 58.291664 93.28438 57.791664Q93.90938 57.291664 94.84688 57.291664Q95.53438 57.291664 96.05 57.572914Q96.58125 57.854164 96.925 58.385414Q97.26875 58.90104 97.45625 59.65104Q97.64375 60.40104 97.64375 61.68229Q97.64375 63.197914 97.33125 64.11979Q97.03438 65.041664 96.40938 65.55729Q95.8 66.05729 94.84688 66.05729Q93.6125 66.05729 92.89375 65.166664Q92.05 64.104164 92.05 61.68229ZM93.12813 61.68229Q93.12813 63.791664 93.62813 64.49479Q94.12813 65.197914 94.84688 65.197914Q95.58125 65.197914 96.06563 64.49479Q96.56563 63.791664 96.56563 61.68229Q96.56563 59.55729 96.06563 58.86979Q95.58125 58.166664 94.83125 58.166664Q94.1125 58.166664 93.675 58.77604Q93.12813 59.55729 93.12813 61.68229Z" fill-rule="nonzero"/><path fill="#000000" d="M91.89375 315.0125L92.925 314.8719Q92.95625 315.85626 93.28438 316.21564Q93.6125 316.575 94.20625 316.575Q94.62813 316.575 94.94063 316.3875Q95.25313 316.1844 95.3625 315.85626Q95.4875 315.5125 95.4875 314.77814L95.4875 308.85626L96.6125 308.85626L96.6125 314.71564Q96.6125 315.79376 96.34688 316.3875Q96.09688 316.98126 95.53438 317.29376Q94.97188 317.59064 94.20625 317.59064Q93.08125 317.59064 92.47188 316.95Q91.87813 316.29376 91.89375 315.0125ZM102.40938 316.6844Q101.81563 317.1844 101.26875 317.3875Q100.7375 317.59064 100.1125 317.59064Q99.08125 317.59064 98.53438 317.09064Q97.9875 316.59064 97.9875 315.8094Q97.9875 315.35626 98.19063 314.98126Q98.39375 314.59064 98.7375 314.3719Q99.08125 314.1375 99.50313 314.02814Q99.8 313.9344 100.44063 313.85626Q101.70625 313.71564 102.31563 313.4969Q102.31563 313.27814 102.31563 313.23126Q102.31563 312.575 102.01875 312.3094Q101.6125 311.96564 100.81563 311.96564Q100.08125 311.96564 99.72188 312.23126Q99.3625 312.48126 99.19063 313.1375L98.15938 312.9969Q98.3 312.34064 98.62813 311.9344Q98.95625 311.52814 99.56563 311.3094Q100.175 311.09064 100.97188 311.09064Q101.76875 311.09064 102.26875 311.27814Q102.76875 311.46564 103.00313 311.7469Q103.2375 312.02814 103.33125 312.46564Q103.37813 312.73126 103.37813 313.4344L103.37813 314.84064Q103.37813 316.3094 103.44063 316.7Q103.51875 317.09064 103.72188 317.45L102.6125 317.45Q102.45625 317.1219 102.40938 316.6844ZM102.31563 314.325Q101.7375 314.5594 100.59688 314.73126Q99.94063 314.825 99.675 314.95Q99.40938 315.0594 99.25313 315.27814Q99.1125 315.4969 99.1125 315.77814Q99.1125 316.2 99.425 316.48126Q99.75313 316.7625 100.3625 316.7625Q100.97188 316.7625 101.44063 316.4969Q101.925 316.23126 102.14375 315.7625Q102.31563 315.40314 102.31563 314.71564L102.31563 314.325ZM105.34688 317.45L105.34688 311.23126L106.28438 311.23126L106.28438 312.10626Q106.97188 311.09064 108.26875 311.09064Q108.83125 311.09064 109.3 311.29376Q109.78438 311.4969 110.01875 311.825Q110.25313 312.15314 110.34688 312.59064Q110.39375 312.8875 110.39375 313.6219L110.39375 317.45L109.34688 317.45L109.34688 313.66876Q109.34688 313.0125 109.22188 312.7Q109.09688 312.3875 108.78438 312.2Q108.47188 311.9969 108.05 311.9969Q107.37813 311.9969 106.87813 312.4344Q106.39375 312.85626 106.39375 314.04376L106.39375 317.45L105.34688 317.45ZM111.925 314.8719L111.925 313.8094L115.175 313.8094L115.175 314.8719L111.925 314.8719ZM121.59688 316.4344L121.59688 317.45L115.90938 317.45Q115.90938 317.075 116.03438 316.71564Q116.25313 316.1375 116.72188 315.575Q117.20625 315.0125 118.1125 314.27814Q119.51875 313.1219 120.00313 312.45Q120.50313 311.77814 120.50313 311.1844Q120.50313 310.5594 120.05 310.1375Q119.59688 309.7 118.87813 309.7Q118.1125 309.7 117.65938 310.15314Q117.20625 310.60626 117.19063 311.41876L116.1125 311.3094Q116.22188 310.09064 116.94063 309.46564Q117.675 308.825 118.90938 308.825Q120.14375 308.825 120.8625 309.5125Q121.58125 310.2 121.58125 311.21564Q121.58125 311.73126 121.3625 312.23126Q121.15938 312.71564 120.65938 313.27814Q120.175 313.825 119.05 314.77814Q118.09688 315.575 117.81563 315.8719Q117.55 316.15314 117.37813 316.4344L121.59688 316.4344ZM127.01875 317.45L125.97188 317.45L125.97188 310.73126Q125.58125 311.09064 124.95625 311.46564Q124.34688 311.825 123.8625 311.9969L123.8625 310.98126Q124.7375 310.5594 125.39375 309.98126Q126.06563 309.3875 126.34688 308.825L127.01875 308.825L127.01875 317.45Z" fill-rule="nonzero"/><path fill="#000000" d="M172.44942 315.0125L173.48067 314.8719Q173.51192 315.85626 173.84004 316.21564Q174.16817 316.575 174.76192 316.575Q175.18379 316.575 175.49629 316.3875Q175.80879 316.1844 175.91817 315.85626Q176.04317 315.5125 176.04317 314.77814L176.04317 308.85626L177.16817 308.85626L177.16817 314.71564Q177.16817 315.79376 176.90254 316.3875Q176.65254 316.98126 176.09004 317.29376Q175.52754 317.59064 174.76192 317.59064Q173.63692 317.59064 173.02754 316.95Q172.43379 316.29376 172.44942 315.0125ZM182.98067 317.45L182.98067 316.52814Q182.24629 317.59064 180.99629 317.59064Q180.44942 317.59064 179.96504 317.3875Q179.49629 317.16876 179.26192 316.85626Q179.02754 316.52814 178.93379 316.0594Q178.87129 315.7625 178.87129 315.075L178.87129 311.23126L179.93379 311.23126L179.93379 314.6844Q179.93379 315.4969 179.99629 315.79376Q180.09004 316.2 180.40254 316.45Q180.73067 316.6844 181.21504 316.6844Q181.68379 316.6844 182.09004 316.45Q182.51192 316.2 182.68379 315.77814Q182.87129 315.35626 182.87129 314.5594L182.87129 311.23126L183.91817 311.23126L183.91817 317.45L182.98067 317.45ZM185.87129 317.45L185.87129 308.85626L186.93379 308.85626L186.93379 317.45L185.87129 317.45ZM188.48067 314.8719L188.48067 313.8094L191.73067 313.8094L191.73067 314.8719L188.48067 314.8719ZM198.15254 316.4344L198.15254 317.45L192.46504 317.45Q192.46504 317.075 192.59004 316.71564Q192.80879 316.1375 193.27754 315.575Q193.76192 315.0125 194.66817 314.27814Q196.07442 313.1219 196.55879 312.45Q197.05879 311.77814 197.05879 311.1844Q197.05879 310.5594 196.60567 310.1375Q196.15254 309.7 195.43379 309.7Q194.66817 309.7 194.21504 310.15314Q193.76192 310.60626 193.74629 311.41876L192.66817 311.3094Q192.77754 310.09064 193.49629 309.46564Q194.23067 308.825 195.46504 308.825Q196.69942 308.825 197.41817 309.5125Q198.13692 310.2 198.13692 311.21564Q198.13692 311.73126 197.91817 312.23126Q197.71504 312.71564 197.21504 313.27814Q196.73067 313.825 195.60567 314.77814Q194.65254 315.575 194.37129 315.8719Q194.10567 316.15314 193.93379 316.4344L198.15254 316.4344ZM203.57442 317.45L202.52754 317.45L202.52754 310.73126Q202.13692 311.09064 201.51192 311.46564Q200.90254 311.825 200.41817 311.9969L200.41817 310.98126Q201.29317 310.5594 201.94942 309.98126Q202.62129 309.3875 202.90254 308.825L203.57442 308.825L203.57442 317.45Z" fill-rule="nonzero"/><path fill="#000000" d="M250.30711 315.0125L251.33836 314.8719Q251.36961 315.85626 251.69774 316.21564Q252.02586 316.575 252.61961 316.575Q253.04149 316.575 253.35399 316.3875Q253.66649 316.1844 253.77586 315.85626Q253.90086 315.5125 253.90086 314.77814L253.90086 308.85626L255.02586 308.85626L255.02586 314.71564Q255.02586 315.79376 254.76024 316.3875Q254.51024 316.98126 253.94774 317.29376Q253.38524 317.59064 252.61961 317.59064Q251.49461 317.59064 250.88524 316.95Q250.29149 316.29376 250.30711 315.0125ZM260.82275 316.6844Q260.229 317.1844 259.68213 317.3875Q259.15088 317.59064 258.52588 317.59064Q257.49463 317.59064 256.94775 317.09064Q256.40088 316.59064 256.40088 315.8094Q256.40088 315.35626 256.604 314.98126Q256.80713 314.59064 257.15088 314.3719Q257.49463 314.1375 257.9165 314.02814Q258.21338 313.9344 258.854 313.85626Q260.11963 313.71564 260.729 313.4969Q260.729 313.27814 260.729 313.23126Q260.729 312.575 260.43213 312.3094Q260.02588 311.96564 259.229 311.96564Q258.49463 311.96564 258.13525 312.23126Q257.77588 312.48126 257.604 313.1375L256.57275 312.9969Q256.71338 312.34064 257.0415 311.9344Q257.36963 311.52814 257.979 311.3094Q258.58838 311.09064 259.38525 311.09064Q260.18213 311.09064 260.68213 311.27814Q261.18213 311.46564 261.4165 311.7469Q261.65088 312.02814 261.74463 312.46564Q261.7915 312.73126 261.7915 313.4344L261.7915 314.84064Q261.7915 316.3094 261.854 316.7Q261.93213 317.09064 262.13525 317.45L261.02588 317.45Q260.86963 317.1219 260.82275 316.6844ZM260.729 314.325Q260.15088 314.5594 259.01025 314.73126Q258.354 314.825 258.08838 314.95Q257.82275 315.0594 257.6665 315.27814Q257.52588 315.4969 257.52588 315.77814Q257.52588 316.2 257.83838 316.48126Q258.1665 316.7625 258.77588 316.7625Q259.38525 316.7625 259.854 316.4969Q260.33838 316.23126 260.55713 315.7625Q260.729 315.40314 260.729 314.71564L260.729 314.325ZM263.76025 317.45L263.76025 311.23126L264.69775 311.23126L264.69775 312.10626Q265.38525 311.09064 266.68213 311.09064Q267.24463 311.09064 267.71338 311.29376Q268.19775 311.4969 268.43213 311.825Q268.6665 312.15314 268.76025 312.59064Q268.80713 312.8875 268.80713 313.6219L268.80713 317.45L267.76025 317.45L267.76025 313.66876Q267.76025 313.0125 267.63525 312.7Q267.51025 312.3875 267.19775 312.2Q266.88525 311.9969 266.46338 311.9969Q265.7915 311.9969 265.2915 312.4344Q264.80713 312.85626 264.80713 314.04376L264.80713 317.45L263.76025 317.45ZM270.33838 314.8719L270.33838 313.8094L273.58838 313.8094L273.58838 314.8719L270.33838 314.8719ZM280.01025 316.4344L280.01025 317.45L274.32275 317.45Q274.32275 317.075 274.44775 316.71564Q274.6665 316.1375 275.13525 315.575Q275.61963 315.0125 276.52588 314.27814Q277.93213 313.1219 278.4165 312.45Q278.9165 311.77814 278.9165 311.1844Q278.9165 310.5594 278.46338 310.1375Q278.01025 309.7 277.2915 309.7Q276.52588 309.7 276.07275 310.15314Q275.61963 310.60626 275.604 311.41876L274.52588 311.3094Q274.63525 310.09064 275.354 309.46564Q276.08838 308.825 277.32275 308.825Q278.55713 308.825 279.27588 309.5125Q279.99463 310.2 279.99463 311.21564Q279.99463 311.73126 279.77588 312.23126Q279.57275 312.71564 279.07275 313.27814Q278.58838 313.825 277.46338 314.77814Q276.51025 315.575 276.229 315.8719Q275.96338 316.15314 275.7915 316.4344L280.01025 316.4344ZM287.01025 316.4344L287.01025 317.45L281.32275 317.45Q281.32275 317.075 281.44775 316.71564Q281.6665 316.1375 282.13525 315.575Q282.61963 315.0125 283.52588 314.27814Q284.93213 313.1219 285.4165 312.45Q285.9165 311.77814 285.9165 311.1844Q285.9165 310.5594 285.46338 310.1375Q285.01025 309.7 284.2915 309.7Q283.52588 309.7 283.07275 310.15314Q282.61963 310.60626 282.604 311.41876L281.52588 311.3094Q281.63525 310.09064 282.354 309.46564Q283.08838 308.825 284.32275 308.825Q285.55713 308.825 286.27588 309.5125Q286.99463 310.2 286.99463 311.21564Q286.99463 311.73126 286.77588 312.23126Q286.57275 312.71564 286.07275 313.27814Q285.58838 313.825 284.46338 314.77814Q283.51025 315.575 283.229 315.8719Q282.96338 316.15314 282.7915 316.4344L287.01025 316.4344Z" fill-rule="nonzero"/><path fill="#000000" d="M330.8628 315.0125L331.89404 314.8719Q331.9253 315.85626 332.25342 316.21564Q332.58154 316.575 333.1753 316.575Q333.59717 316.575 333.90967 316.3875Q334.22217 316.1844 334.33154 315.85626Q334.45654 315.5125 334.45654 314.77814L334.45654 308.85626L335.58154 308.85626L335.58154 314.71564Q335.58154 315.79376 335.31592 316.3875Q335.06592 316.98126 334.50342 317.29376Q333.94092 317.59064 333.1753 317.59064Q332.0503 317.59064 331.44092 316.95Q330.84717 316.29376 330.8628 315.0125ZM341.39404 317.45L341.39404 316.52814Q340.65967 317.59064 339.40967 317.59064Q338.8628 317.59064 338.37842 317.3875Q337.90967 317.16876 337.6753 316.85626Q337.44092 316.52814 337.34717 316.0594Q337.28467 315.7625 337.28467 315.075L337.28467 311.23126L338.34717 311.23126L338.34717 314.6844Q338.34717 315.4969 338.40967 315.79376Q338.50342 316.2 338.81592 316.45Q339.14404 316.6844 339.62842 316.6844Q340.09717 316.6844 340.50342 316.45Q340.9253 316.2 341.09717 315.77814Q341.28467 315.35626 341.28467 314.5594L341.28467 311.23126L342.33154 311.23126L342.33154 317.45L341.39404 317.45ZM344.28467 317.45L344.28467 308.85626L345.34717 308.85626L345.34717 317.45L344.28467 317.45ZM346.89404 314.8719L346.89404 313.8094L350.14404 313.8094L350.14404 314.8719L346.89404 314.8719ZM356.56592 316.4344L356.56592 317.45L350.87842 317.45Q350.87842 317.075 351.00342 316.71564Q351.22217 316.1375 351.69092 315.575Q352.1753 315.0125 353.08154 314.27814Q354.4878 313.1219 354.97217 312.45Q355.47217 311.77814 355.47217 311.1844Q355.47217 310.5594 355.01904 310.1375Q354.56592 309.7 353.84717 309.7Q353.08154 309.7 352.62842 310.15314Q352.1753 310.60626 352.15967 311.41876L351.08154 311.3094Q351.19092 310.09064 351.90967 309.46564Q352.64404 308.825 353.87842 308.825Q355.1128 308.825 355.83154 309.5125Q356.5503 310.2 356.5503 311.21564Q356.5503 311.73126 356.33154 312.23126Q356.12842 312.71564 355.62842 313.27814Q355.14404 313.825 354.01904 314.77814Q353.06592 315.575 352.78467 315.8719Q352.51904 316.15314 352.34717 316.4344L356.56592 316.4344ZM363.56592 316.4344L363.56592 317.45L357.87842 317.45Q357.87842 317.075 358.00342 316.71564Q358.22217 316.1375 358.69092 315.575Q359.1753 315.0125 360.08154 314.27814Q361.4878 313.1219 361.97217 312.45Q362.47217 311.77814 362.47217 311.1844Q362.47217 310.5594 362.01904 310.1375Q361.56592 309.7 360.84717 309.7Q360.08154 309.7 359.62842 310.15314Q359.1753 310.60626 359.15967 311.41876L358.08154 311.3094Q358.19092 310.09064 358.90967 309.46564Q359.64404 308.825 360.87842 308.825Q362.1128 308.825 362.83154 309.5125Q363.5503 310.2 363.5503 311.21564Q363.5503 311.73126 363.33154 312.23126Q363.12842 312.71564 362.62842 313.27814Q362.14404 313.825 361.01904 314.77814Q360.06592 315.575 359.78467 315.8719Q359.51904 316.15314 359.34717 316.4344L363.56592 316.4344Z" fill-rule="nonzero"/><path fill="#000000" d="M408.7205 315.0125L409.75174 314.8719Q409.783 315.85626 410.1111 316.21564Q410.43924 316.575 411.033 316.575Q411.45486 316.575 411.76736 316.3875Q412.07986 316.1844 412.18924 315.85626Q412.31424 315.5125 412.31424 314.77814L412.31424 308.85626L413.43924 308.85626L413.43924 314.71564Q413.43924 315.79376 413.1736 316.3875Q412.9236 316.98126 412.3611 317.29376Q411.7986 317.59064 411.033 317.59064Q409.908 317.59064 409.2986 316.95Q408.70486 316.29376 408.7205 315.0125ZM419.2361 316.6844Q418.64236 317.1844 418.0955 317.3875Q417.56424 317.59064 416.93924 317.59064Q415.908 317.59064 415.3611 317.09064Q414.81424 316.59064 414.81424 315.8094Q414.81424 315.35626 415.01736 314.98126Q415.2205 314.59064 415.56424 314.3719Q415.908 314.1375 416.32986 314.02814Q416.62674 313.9344 417.26736 313.85626Q418.533 313.71564 419.14236 313.4969Q419.14236 313.27814 419.14236 313.23126Q419.14236 312.575 418.8455 312.3094Q418.43924 311.96564 417.64236 311.96564Q416.908 311.96564 416.5486 312.23126Q416.18924 312.48126 416.01736 313.1375L414.9861 312.9969Q415.12674 312.34064 415.45486 311.9344Q415.783 311.52814 416.39236 311.3094Q417.00174 311.09064 417.7986 311.09064Q418.5955 311.09064 419.0955 311.27814Q419.5955 311.46564 419.82986 311.7469Q420.06424 312.02814 420.158 312.46564Q420.20486 312.73126 420.20486 313.4344L420.20486 314.84064Q420.20486 316.3094 420.26736 316.7Q420.3455 317.09064 420.5486 317.45L419.43924 317.45Q419.283 317.1219 419.2361 316.6844ZM419.14236 314.325Q418.56424 314.5594 417.4236 314.73126Q416.76736 314.825 416.50174 314.95Q416.2361 315.0594 416.07986 315.27814Q415.93924 315.4969 415.93924 315.77814Q415.93924 316.2 416.25174 316.48126Q416.57986 316.7625 417.18924 316.7625Q417.7986 316.7625 418.26736 316.4969Q418.75174 316.23126 418.9705 315.7625Q419.14236 315.40314 419.14236 314.71564L419.14236 314.325ZM422.1736 317.45L422.1736 311.23126L423.1111 311.23126L423.1111 312.10626Q423.7986 311.09064 425.0955 311.09064Q425.658 311.09064 426.12674 311.29376Q426.6111 311.4969 426.8455 311.825Q427.07986 312.15314 427.1736 312.59064Q427.2205 312.8875 427.2205 313.6219L427.2205 317.45L426.1736 317.45L426.1736 313.66876Q426.1736 313.0125 426.0486 312.7Q425.9236 312.3875 425.6111 312.2Q425.2986 311.9969 424.87674 311.9969Q424.20486 311.9969 423.70486 312.4344Q423.2205 312.85626 423.2205 314.04376L423.2205 317.45L422.1736 317.45ZM428.75174 314.8719L428.75174 313.8094L432.00174 313.8094L432.00174 314.8719L428.75174 314.8719ZM438.4236 316.4344L438.4236 317.45L432.7361 317.45Q432.7361 317.075 432.8611 316.71564Q433.07986 316.1375 433.5486 315.575Q434.033 315.0125 434.93924 314.27814Q436.3455 313.1219 436.82986 312.45Q437.32986 311.77814 437.32986 311.1844Q437.32986 310.5594 436.87674 310.1375Q436.4236 309.7 435.70486 309.7Q434.93924 309.7 434.4861 310.15314Q434.033 310.60626 434.01736 311.41876L432.93924 311.3094Q433.0486 310.09064 433.76736 309.46564Q434.50174 308.825 435.7361 308.825Q436.9705 308.825 437.68924 309.5125Q438.408 310.2 438.408 311.21564Q438.408 311.73126 438.18924 312.23126Q437.9861 312.71564 437.4861 313.27814Q437.00174 313.825 435.87674 314.77814Q434.9236 315.575 434.64236 315.8719Q434.37674 316.15314 434.20486 316.4344L438.4236 316.4344ZM439.87674 315.1844L440.93924 315.04376Q441.1111 315.9344 441.5486 316.34064Q441.9861 316.73126 442.6111 316.73126Q443.3611 316.73126 443.87674 316.21564Q444.39236 315.7 444.39236 314.9344Q444.39236 314.21564 443.908 313.7469Q443.43924 313.2625 442.70486 313.2625Q442.408 313.2625 441.95486 313.3875L442.07986 312.45Q442.18924 312.46564 442.25174 312.46564Q442.9236 312.46564 443.45486 312.1219Q444.00174 311.7625 444.00174 311.02814Q444.00174 310.45 443.6111 310.075Q443.2205 309.6844 442.5955 309.6844Q441.9861 309.6844 441.56424 310.075Q441.158 310.46564 441.0486 311.23126L439.9861 311.04376Q440.1736 309.9969 440.8611 309.41876Q441.5486 308.825 442.56424 308.825Q443.26736 308.825 443.8611 309.1375Q444.45486 309.4344 444.76736 309.95Q445.07986 310.46564 445.07986 311.0594Q445.07986 311.60626 444.783 312.075Q444.4861 312.52814 443.908 312.79376Q444.658 312.96564 445.07986 313.52814Q445.50174 314.075 445.50174 314.91876Q445.50174 316.04376 444.6736 316.825Q443.8611 317.60626 442.6111 317.60626Q441.4861 317.60626 440.7361 316.9344Q439.9861 316.2469 439.87674 315.1844Z" fill-rule="nonzero"/><path fill="#000000" d="M489.27615 315.0125L490.3074 314.8719Q490.33865 315.85626 490.66678 316.21564Q490.9949 316.575 491.58865 316.575Q492.01053 316.575 492.32303 316.3875Q492.63553 316.1844 492.7449 315.85626Q492.8699 315.5125 492.8699 314.77814L492.8699 308.85626L493.9949 308.85626L493.9949 314.71564Q493.9949 315.79376 493.72928 316.3875Q493.47928 316.98126 492.91678 317.29376Q492.35428 317.59064 491.58865 317.59064Q490.46365 317.59064 489.85428 316.95Q489.26053 316.29376 489.27615 315.0125ZM499.8074 317.45L499.8074 316.52814Q499.07303 317.59064 497.82303 317.59064Q497.27615 317.59064 496.79178 317.3875Q496.32303 317.16876 496.08865 316.85626Q495.85428 316.52814 495.76053 316.0594Q495.69803 315.7625 495.69803 315.075L495.69803 311.23126L496.76053 311.23126L496.76053 314.6844Q496.76053 315.4969 496.82303 315.79376Q496.91678 316.2 497.22928 316.45Q497.5574 316.6844 498.04178 316.6844Q498.51053 316.6844 498.91678 316.45Q499.33865 316.2 499.51053 315.77814Q499.69803 315.35626 499.69803 314.5594L499.69803 311.23126L500.7449 311.23126L500.7449 317.45L499.8074 317.45ZM502.69803 317.45L502.69803 308.85626L503.76053 308.85626L503.76053 317.45L502.69803 317.45ZM505.3074 314.8719L505.3074 313.8094L508.5574 313.8094L508.5574 314.8719L505.3074 314.8719ZM514.97925 316.4344L514.97925 317.45L509.29178 317.45Q509.29178 317.075 509.41678 316.71564Q509.63553 316.1375 510.10428 315.575Q510.58865 315.0125 511.4949 314.27814Q512.9011 313.1219 513.3855 312.45Q513.8855 311.77814 513.8855 311.1844Q513.8855 310.5594 513.4324 310.1375Q512.97925 309.7 512.2605 309.7Q511.4949 309.7 511.04178 310.15314Q510.58865 310.60626 510.57303 311.41876L509.4949 311.3094Q509.60428 310.09064 510.32303 309.46564Q511.0574 308.825 512.29175 308.825Q513.5261 308.825 514.2449 309.5125Q514.9636 310.2 514.9636 311.21564Q514.9636 311.73126 514.7449 312.23126Q514.54175 312.71564 514.04175 313.27814Q513.5574 313.825 512.4324 314.77814Q511.47928 315.575 511.19803 315.8719Q510.9324 316.15314 510.76053 316.4344L514.97925 316.4344ZM516.4324 315.1844L517.4949 315.04376Q517.66675 315.9344 518.10425 316.34064Q518.54175 316.73126 519.16675 316.73126Q519.91675 316.73126 520.4324 316.21564Q520.948 315.7 520.948 314.9344Q520.948 314.21564 520.4636 313.7469Q519.9949 313.2625 519.2605 313.2625Q518.9636 313.2625 518.5105 313.3875L518.6355 312.45Q518.7449 312.46564 518.8074 312.46564Q519.47925 312.46564 520.0105 312.1219Q520.5574 311.7625 520.5574 311.02814Q520.5574 310.45 520.16675 310.075Q519.7761 309.6844 519.1511 309.6844Q518.54175 309.6844 518.1199 310.075Q517.7136 310.46564 517.60425 311.23126L516.54175 311.04376Q516.72925 309.9969 517.41675 309.41876Q518.10425 308.825 519.1199 308.825Q519.823 308.825 520.41675 309.1375Q521.0105 309.4344 521.323 309.95Q521.6355 310.46564 521.6355 311.0594Q521.6355 311.60626 521.3386 312.075Q521.04175 312.52814 520.4636 312.79376Q521.2136 312.96564 521.6355 313.52814Q522.0574 314.075 522.0574 314.91876Q522.0574 316.04376 521.22925 316.825Q520.41675 317.60626 519.16675 317.60626Q518.04175 317.60626 517.29175 316.9344Q516.54175 316.2469 516.4324 315.1844Z" fill-rule="nonzero"/><path fill="#38761d" d="M233.92188 37.55L233.92188 23.2375L238.25 23.2375L240.84375 33.003124L243.40625 23.2375L247.75 23.2375L247.75 37.55L245.0625 37.55L245.0625 26.284374L242.21875 37.55L239.4375 37.55L236.60938 26.284374L236.60938 37.55L233.92188 37.55ZM250.29688 32.221874Q250.29688 30.846874 250.96875 29.565624Q251.65625 28.284374 252.89062 27.6125Q254.125 26.940624 255.64062 26.940624Q258.0 26.940624 259.5 28.471874Q261.0 30.003124 261.0 32.33125Q261.0 34.690624 259.48438 36.2375Q257.96875 37.784374 255.65625 37.784374Q254.23438 37.784374 252.9375 37.14375Q251.65625 36.4875 250.96875 35.253124Q250.29688 34.003124 250.29688 32.221874ZM253.10938 32.3625Q253.10938 33.909374 253.84375 34.7375Q254.57812 35.55 255.65625 35.55Q256.73438 35.55 257.45312 34.7375Q258.1875 33.909374 258.1875 32.346874Q258.1875 30.815624 257.45312 30.003124Q256.73438 29.175 255.65625 29.175Q254.57812 29.175 253.84375 30.003124Q253.10938 30.815624 253.10938 32.3625ZM272.375 37.55L269.625 37.55L269.625 32.253124Q269.625 30.58125 269.45312 30.096874Q269.28125 29.596874 268.875 29.33125Q268.48438 29.05 267.92188 29.05Q267.21875 29.05 266.64062 29.440624Q266.07812 29.83125 265.85938 30.471874Q265.65625 31.1125 265.65625 32.846874L265.65625 37.55L262.92188 37.55L262.92188 27.175L265.46875 27.175L265.46875 28.70625Q266.82812 26.940624 268.89062 26.940624Q269.79688 26.940624 270.54688 27.26875Q271.29688 27.596874 271.67188 28.1125Q272.0625 28.6125 272.21875 29.26875Q272.375 29.909374 272.375 31.096874L272.375 37.55ZM279.6875 27.175L279.6875 29.3625L277.8125 29.3625L277.8125 33.55Q277.8125 34.815624 277.85938 35.034374Q277.92188 35.2375 278.10938 35.378124Q278.3125 35.503124 278.57812 35.503124Q278.95312 35.503124 279.6875 35.2375L279.92188 37.378124Q278.95312 37.784374 277.75 37.784374Q277.0 37.784374 276.40625 37.534374Q275.8125 37.284374 275.53125 36.89375Q275.26562 36.4875 275.15625 35.815624Q275.0625 35.346874 275.0625 33.89375L275.0625 29.3625L273.79688 29.3625L273.79688 27.175L275.0625 27.175L275.0625 25.1125L277.8125 23.51875L277.8125 27.175L279.6875 27.175ZM284.67188 23.2375L284.67188 28.503124Q286.0 26.940624 287.84375 26.940624Q288.79688 26.940624 289.54688 27.3Q290.3125 27.64375 290.70312 28.190624Q291.09375 28.7375 291.23438 29.409374Q291.375 30.065624 291.375 31.471874L291.375 37.55L288.625 37.55L288.625 32.065624Q288.625 30.440624 288.46875 30.003124Q288.3125 29.565624 287.90625 29.315624Q287.51562 29.05 286.92188 29.05Q286.25 29.05 285.70312 29.378124Q285.17188 29.70625 284.92188 30.378124Q284.67188 31.05 284.67188 32.346874L284.67188 37.55L281.92188 37.55L281.92188 23.2375L284.67188 23.2375ZM293.9375 37.55L293.9375 23.2375L296.6875 23.2375L296.6875 37.55L293.9375 37.55ZM298.64062 27.175L301.5625 27.175L304.03125 34.534374L306.45312 27.175L309.29688 27.175L305.64062 37.159374L304.98438 38.971874Q304.625 39.878124 304.29688 40.346874Q303.96875 40.83125 303.54688 41.128124Q303.125 41.425 302.5 41.58125Q301.875 41.753124 301.09375 41.753124Q300.3125 41.753124 299.54688 41.596874L299.29688 39.440624Q299.95312 39.565624 300.46875 39.565624Q301.42188 39.565624 301.875 39.003124Q302.34375 38.45625 302.57812 37.58125L298.64062 27.175ZM316.21875 32.89375L319.03125 32.6125Q319.29688 34.034374 320.0625 34.70625Q320.84375 35.3625 322.15625 35.3625Q323.5625 35.3625 324.26562 34.76875Q324.96875 34.175 324.96875 33.39375Q324.96875 32.878124 324.67188 32.534374Q324.375 32.175 323.64062 31.909374Q323.125 31.721874 321.32812 31.284374Q319.0 30.70625 318.0625 29.8625Q316.73438 28.675 316.73438 26.9875Q316.73438 25.89375 317.35938 24.940624Q317.98438 23.9875 319.14062 23.4875Q320.3125 22.9875 321.96875 22.9875Q324.65625 22.9875 326.01562 24.175Q327.39062 25.346874 327.45312 27.33125L324.5625 27.45625Q324.375 26.346874 323.76562 25.8625Q323.15625 25.378124 321.9375 25.378124Q320.67188 25.378124 319.96875 25.89375Q319.5 26.2375 319.5 26.784374Q319.5 27.3 319.9375 27.659374Q320.48438 28.1125 322.59375 28.6125Q324.70312 29.1125 325.70312 29.64375Q326.71875 30.175 327.28125 31.096874Q327.85938 32.01875 327.85938 33.378124Q327.85938 34.6125 327.17188 35.690624Q326.5 36.753124 325.25 37.284374Q324.0 37.8 322.125 37.8Q319.42188 37.8 317.95312 36.55Q316.5 35.3 316.21875 32.89375ZM331.98438 30.346874L329.5 29.89375Q329.92188 28.39375 330.9375 27.675Q331.96875 26.940624 333.98438 26.940624Q335.82812 26.940624 336.71875 27.378124Q337.625 27.815624 337.98438 28.4875Q338.35938 29.14375 338.35938 30.940624L338.32812 34.14375Q338.32812 35.503124 338.45312 36.159374Q338.59375 36.8 338.95312 37.55L336.23438 37.55Q336.125 37.26875 335.96875 36.7375Q335.90625 36.4875 335.875 36.409374Q335.17188 37.096874 334.35938 37.440624Q333.5625 37.784374 332.65625 37.784374Q331.0625 37.784374 330.14062 36.925Q329.21875 36.05 329.21875 34.721874Q329.21875 33.83125 329.625 33.14375Q330.04688 32.45625 330.79688 32.096874Q331.5625 31.721874 333.0 31.45625Q334.92188 31.096874 335.65625 30.784374L335.65625 30.503124Q335.65625 29.721874 335.26562 29.39375Q334.875 29.05 333.79688 29.05Q333.0625 29.05 332.64062 29.33125Q332.23438 29.6125 331.98438 30.346874ZM335.65625 32.565624Q335.125 32.7375 333.98438 32.9875Q332.84375 33.2375 332.5 33.471874Q331.95312 33.846874 331.95312 34.440624Q331.95312 35.003124 332.375 35.425Q332.8125 35.846874 333.48438 35.846874Q334.21875 35.846874 334.89062 35.3625Q335.39062 34.9875 335.54688 34.45625Q335.65625 34.096874 335.65625 33.1125L335.65625 32.565624ZM340.9375 37.55L340.9375 23.2375L343.6875 23.2375L343.6875 37.55L340.9375 37.55ZM352.9375 34.253124L355.67188 34.70625Q355.15625 36.20625 354.01562 37.003124Q352.875 37.784374 351.17188 37.784374Q348.45312 37.784374 347.15625 36.01875Q346.14062 34.596874 346.14062 32.440624Q346.14062 29.8625 347.48438 28.409374Q348.82812 26.940624 350.89062 26.940624Q353.20312 26.940624 354.53125 28.471874Q355.875 30.003124 355.82812 33.159374L348.95312 33.159374Q348.98438 34.378124 349.60938 35.065624Q350.25 35.7375 351.1875 35.7375Q351.84375 35.7375 352.28125 35.39375Q352.71875 35.034374 352.9375 34.253124ZM353.09375 31.471874Q353.0625 30.284374 352.46875 29.675Q351.89062 29.05 351.0625 29.05Q350.15625 29.05 349.57812 29.690624Q348.98438 30.346874 349.0 31.471874L353.09375 31.471874ZM356.96875 34.596874L359.71875 34.175Q359.90625 34.971874 360.4375 35.39375Q360.96875 35.8 361.9375 35.8Q363.0 35.8 363.54688 35.409374Q363.90625 35.14375 363.90625 34.675Q363.90625 34.3625 363.70312 34.159374Q363.5 33.971874 362.79688 33.8Q359.46875 33.065624 358.57812 32.45625Q357.34375 31.628124 357.34375 30.128124Q357.34375 28.784374 358.40625 27.8625Q359.48438 26.940624 361.71875 26.940624Q363.84375 26.940624 364.875 27.64375Q365.92188 28.33125 366.3125 29.690624L363.71875 30.159374Q363.54688 29.565624 363.07812 29.2375Q362.625 28.909374 361.76562 28.909374Q360.6875 28.909374 360.21875 29.221874Q359.90625 29.440624 359.90625 29.76875Q359.90625 30.065624 360.17188 30.26875Q360.54688 30.55 362.73438 31.05Q364.92188 31.55 365.79688 32.26875Q366.65625 33.003124 366.65625 34.3Q366.65625 35.7375 365.46875 36.76875Q364.28125 37.784374 361.9375 37.784374Q359.82812 37.784374 358.57812 36.925Q357.34375 36.065624 356.96875 34.596874Z" fill-rule="nonzero"/></svg>